<?xml version="1.0" standalone="no"?>
<!DOCTYPE svg PUBLIC "-//W3C//DTD SVG 1.1//EN" "http://www.w3.org/Graphics/SVG/1.1/DTD/svg11.dtd" >
<svg xmlns="http://www.w3.org/2000/svg" xmlns:xlink="http://www.w3.org/1999/xlink" version="1.1">
<metadata></metadata>
<defs>
<font id="krub_mediumitalic" horiz-adv-x="1228" >
<font-face units-per-em="2048" ascent="1638" descent="-410" />
<missing-glyph horiz-adv-x="528" />
<glyph unicode="&#xfb01;" horiz-adv-x="1296" d="M41 993l18 133h197l20 146q20 156 116.5 246t242.5 90q98 0 148.5 -28t50.5 -77q0 -25 -11.5 -46t-25.5 -25q-61 31 -146 30q-152 0 -182 -192l-20 -144h241l-18 -133h-242l-137 -993h-195l140 993h-197zM789 0l158 1126h192l-158 -1126h-192zM961 1423q0 16 2 25l4 22 q16 115 129 115h21q102 0 102 -90q0 -16 -2 -25l-4 -22q-16 -115 -131 -115h-21q-100 0 -100 90z" />
<glyph unicode="&#xfb02;" horiz-adv-x="1255" d="M41 993l18 133h197l20 146q20 156 116.5 246t242.5 90q98 0 148.5 -28t50.5 -77q0 -25 -11.5 -46t-25.5 -25q-61 31 -146 30q-152 0 -182 -192l-20 -144h241l-18 -133h-242l-137 -993h-195l140 993h-197zM768 0l228 1620h192l-227 -1620h-193z" />
<glyph horiz-adv-x="0" />
<glyph unicode="&#xd;" horiz-adv-x="528" />
<glyph horiz-adv-x="0" />
<glyph horiz-adv-x="0" />
<glyph unicode=" "  horiz-adv-x="528" />
<glyph unicode="&#x09;" horiz-adv-x="528" />
<glyph unicode="&#xa0;" horiz-adv-x="528" />
<glyph unicode="!" horiz-adv-x="503" d="M23 86q0 16 2 25l4 22q16 115 131 115h20q100 0 101 -90q0 -16 -2 -25l-5 -22q-16 -115 -129 -115h-20q-102 0 -102 90zM125 436l96 998h230l-185 -998h-141z" />
<glyph unicode="&#x22;" horiz-adv-x="663" d="M150 1034l36 475h187l-92 -475h-131zM440 1034l39 475h187l-95 -475h-131z" />
<glyph unicode="#" horiz-adv-x="1105" d="M-6 426l18 131h211l94 315h-206l18 132h227l129 430h138l-129 -430h278l129 430h137l-129 -430h170l-18 -132h-191l-94 -315h187l-19 -131h-209l-127 -426h-137l127 426h-279l-126 -426h-138l127 426h-188zM360 557h279l94 315h-278z" />
<glyph unicode="$" horiz-adv-x="1247" d="M4 276q0 68 44 106t124 40q6 -125 84 -197.5t217 -83.5l76 539q-219 63 -312.5 153.5t-93.5 237.5q0 113 64.5 199t181.5 135t268 49l29 203h127l-29 -211q158 -25 260.5 -109t124.5 -211q-27 -25 -61.5 -41t-60.5 -16q-29 0 -46.5 12.5t-33.5 46.5q-61 121 -205 156 l-66 -457q158 -51 246 -102t125 -114.5t37 -153.5q0 -211 -138.5 -336t-385.5 -139l-33 -228h-127l33 228q-201 12 -325 93t-124 201zM352 1087q0 -81 47 -128.5t176 -92.5l60 430q-133 -4 -208 -59t-75 -150zM602 143q139 17 213 85.5t74 183.5q0 86 -46 135t-171 94z" />
<glyph unicode="%" horiz-adv-x="1863" d="M190 1012q0 119 46.5 215t130.5 151.5t196 55.5q135 0 212 -78t77 -213q0 -186 -96.5 -307t-276.5 -121q-133 0 -211 77.5t-78 219.5zM309 -20l1034 1474h183l-1034 -1474h-183zM350 1012q0 -82 37 -126t107 -44q102 0 150 85t48 216q0 82 -32.5 123t-108.5 41 q-102 0 -151.5 -85t-49.5 -210zM975 289q0 186 100.5 305t274.5 119q135 0 211.5 -79t76.5 -214q0 -186 -97 -306t-277 -120q-131 0 -210 78t-79 217zM1135 293q0 -84 37.5 -128t107.5 -44q102 0 150.5 85t48.5 216q0 82 -34 123t-110 41q-100 0 -150 -85t-50 -208z" />
<glyph unicode="&#x26;" horiz-adv-x="1406" d="M4 332q0 111 43 189.5t118 135t197 123.5q-76 164 -75 303q0 106 50 191.5t138 132.5t197 47q127 0 211 -68.5t84 -187.5q0 -98 -52.5 -177t-133.5 -139.5t-208 -131.5q61 -106 145.5 -230.5t151.5 -202.5q68 84 110 189.5t50 220.5q68 0 107 -29.5t39 -87.5 q0 -94 -49.5 -205.5t-139.5 -205.5q51 -39 96 -51.5t109 -14.5l-10 -70q-12 -84 -125 -83q-59 0 -113.5 23.5t-112.5 76.5q-170 -100 -389 -100q-203 0 -320.5 92t-117.5 260zM193 348q0 -110 70.5 -172.5t191.5 -62.5q147 0 276 80q-84 109 -167 236.5t-142 234.5 q-119 -70 -174 -137.5t-55 -178.5zM457 1083q0 -94 57 -221q141 78 214 151.5t73 178.5q0 57 -36 92t-106 35q-94 0 -148 -65.5t-54 -170.5z" />
<glyph unicode="'" horiz-adv-x="456" d="M190 1034l39 475h187l-92 -475h-134z" />
<glyph unicode="(" horiz-adv-x="798" d="M133 551q0 342 125 647t352 557h172q-217 -276 -333.5 -587.5t-116.5 -632.5q0 -399 174 -738h-172q-201 338 -201 754z" />
<glyph unicode=")" horiz-adv-x="798" d="M16 -203q217 276 334 587.5t117 633.5q0 399 -174 737h172q201 -338 201 -754q0 -342 -125 -647t-353 -557h-172z" />
<glyph unicode="*" horiz-adv-x="1265" d="M295 1507l76 156l311 -141l16 368h168l-80 -368l349 143l32 -156l-370 -79l204 -273l-151 -94l-137 315l-226 -315l-127 90l285 277z" />
<glyph unicode="+" d="M70 596l18 135h438l66 453h143l-63 -453h440l-18 -135h-441l-63 -453h-144l62 453h-438z" />
<glyph unicode="," horiz-adv-x="630" d="M16 -250q72 72 113 127t61 119h-6q-45 0 -71.5 24.5t-26.5 67.5q0 20 3 38.5t5 29.5q8 49 38 70.5t81 21.5h33q47 0 72.5 -24.5t25.5 -69.5q0 -43 -8 -76q-12 -74 -46 -138.5t-87 -132.5q-39 -45 -66.5 -65.5t-52.5 -20.5q-43 0 -68 29z" />
<glyph unicode="-" horiz-adv-x="983" d="M84 561l18 135h738l-19 -135h-737z" />
<glyph unicode="." horiz-adv-x="632" d="M88 86q0 16 2 25l2 22q18 115 131 115h21q100 0 100 -86q0 -18 -2 -29l-2 -22q-16 -115 -131 -115h-21q-100 0 -100 90z" />
<glyph unicode="/" horiz-adv-x="684" d="M-168 -113l844 1774h160l-844 -1774h-160z" />
<glyph unicode="0" horiz-adv-x="1269" d="M53 500q0 98 15 192q51 365 217 563.5t436 198.5q227 0 342 -141.5t115 -405.5q0 -90 -17 -215q-49 -344 -213 -530.5t-434 -186.5q-229 0 -345 135.5t-116 389.5zM248 502q0 -373 289 -373q180 0 286.5 147.5t143.5 415.5q18 143 18 217q0 391 -285 391 q-352 0 -438 -608q-14 -119 -14 -190z" />
<glyph unicode="1" horiz-adv-x="940" d="M16 0l19 139h250l147 1057q-55 -39 -114.5 -65.5t-106.5 -26.5q-43 0 -68.5 25.5t-25.5 72.5q0 25 6 51q111 4 222.5 51.5t189.5 129.5h118l-182 -1295h240l-19 -139h-676z" />
<glyph unicode="2" horiz-adv-x="1099" d="M-10 0l14 100l43 31q274 201 432 334t262.5 283.5t104.5 308.5q0 115 -59.5 173t-172.5 58q-264 0 -333 -319q-74 0 -107 23.5t-33 74.5q0 104 67.5 188t179.5 131.5t237 47.5q180 0 293.5 -98.5t113.5 -270.5q0 -170 -101.5 -326.5t-258 -294t-383.5 -297.5h600 l-21 -147h-878z" />
<glyph unicode="3" horiz-adv-x="1124" d="M-27 172q0 35 19.5 60.5t50.5 35.5q145 -141 373 -141q150 0 249 83t99 220q0 104 -66.5 162.5t-171.5 58.5q-27 0 -67 -4l-64 -2q-31 0 -53.5 41t-22.5 76q0 16 6.5 22.5t20.5 6.5h189q137 0 213.5 80.5t76.5 205.5q0 96 -59 153.5t-180 57.5q-115 0 -200 -58.5 t-138 -160.5q-49 0 -81 23.5t-32 64.5q0 63 62.5 128t168 107t226.5 42q125 0 221 -45.5t148.5 -126t52.5 -181.5q0 -137 -72 -230t-199 -128q91 -31 150 -98.5t59 -182.5q0 -152 -72.5 -255t-195.5 -154t-274 -51q-129 0 -228.5 26.5t-154 70.5t-54.5 93z" />
<glyph unicode="4" horiz-adv-x="1069" d="M-23 328l15 94q231 268 359 500.5t188 511.5q18 4 53 4q117 0 117 -109q0 -113 -82 -272.5t-200 -317t-224 -264.5h409l58 395h184l-55 -395h180l-21 -147h-180l-45 -328h-186l45 328h-615z" />
<glyph unicode="5" horiz-adv-x="1138" d="M49 229q0 109 123 121q47 -221 293 -221q166 0 260 119t94 299q0 123 -66.5 184.5t-189.5 61.5q-94 0 -167.5 -37t-137.5 -115l-131 23l158 770h753l-20 -146h-592l-88 -422q113 76 268 76q182 0 292 -105.5t110 -283.5q0 -164 -71 -294t-198 -203.5t-290 -73.5 q-125 0 -215.5 37.5t-137.5 95t-47 114.5z" />
<glyph unicode="6" horiz-adv-x="1181" d="M43 457q0 233 107.5 462.5t287.5 377t387 147.5q72 0 104 -34t32 -107q-229 0 -404.5 -134.5t-259.5 -353.5q66 45 150.5 75t170.5 30q115 0 205 -49.5t141.5 -140.5t51.5 -216q0 -160 -64.5 -278.5t-185.5 -184t-283 -65.5q-135 0 -235.5 61.5t-152.5 168t-52 241.5z M231 469q0 -150 65.5 -243t201.5 -93q155 0 242 103.5t87 271.5q0 131 -64.5 197.5t-178.5 66.5q-92 0 -179.5 -36t-158.5 -97q-14 -78 -15 -170z" />
<glyph unicode="7" horiz-adv-x="987" d="M152 1358q0 16 5 38.5t13 37.5h862l-14 -97q-272 -354 -399 -621t-187 -569l-29 -147h-94q-100 0 -100 82q0 10 4 35l10 59q47 260 208 559t390 545h-573q-47 0 -71.5 20.5t-24.5 57.5z" />
<glyph unicode="8" horiz-adv-x="1155" d="M23 326q0 160 82.5 257t248.5 158q-197 117 -196 303q0 125 65.5 215.5t180 137.5t260.5 47q121 0 211 -45t138 -123t48 -174q0 -141 -70.5 -225t-208.5 -144q222 -108 222 -325q0 -215 -146.5 -320.5t-400.5 -105.5q-201 0 -317.5 93t-116.5 251zM211 332 q0 -94 71.5 -149.5t196.5 -55.5q150 0 242 71.5t92 202.5q0 80 -58.5 136.5t-201.5 113.5q-176 -59 -259 -130.5t-83 -188.5zM346 1051q0 -82 60.5 -145.5t168.5 -100.5q147 45 223 113.5t76 185.5q0 88 -61 142t-170 54q-131 0 -214 -67.5t-83 -181.5z" />
<glyph unicode="9" horiz-adv-x="1181" d="M100 899q0 158 74 281t201 190.5t278 67.5q217 0 321.5 -123t104.5 -328q0 -246 -111.5 -478.5t-301 -377.5t-408.5 -145q-113 0 -113 102q0 27 2 39q231 0 406.5 130t263.5 347q-66 -43 -147.5 -70.5t-165.5 -27.5q-184 0 -294 102.5t-110 290.5zM289 911 q0 -258 258 -258q178 0 323 131q20 96 21 211q0 139 -60.5 216t-201.5 77q-158 0 -249 -106.5t-91 -270.5z" />
<glyph unicode=":" horiz-adv-x="663" d="M88 86q0 16 2 25l2 22q18 115 131 115h21q100 0 100 -86q0 -18 -2 -29l-2 -22q-16 -115 -131 -115h-21q-100 0 -100 90zM192 827q0 16 2 25l2 22q18 115 131 115h21q100 0 100 -86q0 -18 -2 -29l-2 -22q-16 -115 -131 -115h-21q-100 0 -100 90z" />
<glyph unicode=";" horiz-adv-x="663" d="M16 -250q72 72 113 127t61 119h-6q-45 0 -71.5 24.5t-26.5 67.5q0 20 3 38.5t5 29.5q8 49 38 70.5t81 21.5h33q47 0 72.5 -24.5t25.5 -69.5q0 -43 -8 -76q-12 -74 -46 -138.5t-87 -132.5q-39 -45 -66.5 -65.5t-52.5 -20.5q-43 0 -68 29zM192 827q0 16 2 25l2 22 q18 115 131 115h21q100 0 100 -86q0 -18 -2 -29l-2 -22q-16 -115 -131 -115h-21q-100 0 -100 90z" />
<glyph unicode="&#x3c;" d="M121 702l946 553l27 -180l-783 -452l910 -457l24 -180l-1102 557z" />
<glyph unicode="=" d="M82 401l20 140h942l-20 -140h-942zM141 819l19 139h942l-19 -139h-942z" />
<glyph unicode="&#x3e;" d="M-16 -14l24 180l910 457l-783 452l27 180l946 -553l-23 -159z" />
<glyph unicode="?" horiz-adv-x="972" d="M102 1128q45 145 170 234.5t299 89.5q172 0 278.5 -90t106.5 -240q0 -90 -31.5 -155.5t-81.5 -112.5t-143 -115q-100 -76 -152 -134t-67 -148l-8 -49h-176l12 75q16 109 83 187t183 168q96 76 141.5 135t45.5 147q0 84 -53.5 131t-157.5 47q-115 0 -182.5 -62 t-106.5 -167zM221 84q0 10 6 59q18 104 131 105h21q100 0 100 -86q0 -33 -6 -56q-14 -111 -129 -110h-20q-103 0 -103 88z" />
<glyph unicode="@" horiz-adv-x="1708" d="M106 575q0 246 116 451t314.5 323.5t436.5 118.5q190 0 332.5 -68.5t218 -192.5t75.5 -283q0 -154 -64.5 -300.5t-175 -238.5t-243.5 -92q-63 0 -104 34.5t-47 90.5q-41 -55 -103.5 -90t-146.5 -35q-119 0 -186.5 69.5t-67.5 196.5q0 137 56 263t156.5 204t227.5 78 q150 0 197 -115l24 82h138l-154 -510q-4 -14 -13.5 -47t-9.5 -53q0 -49 60 -49q90 0 166.5 78.5t122 197.5t45.5 227q0 203 -140.5 322t-375.5 119q-209 0 -375 -100.5t-259.5 -274.5t-93.5 -385q0 -248 152 -386t420 -138q141 0 240.5 30.5t197.5 90.5q45 -29 39 -72 q-4 -41 -74.5 -78t-183.5 -60.5t-236 -23.5q-319 0 -500.5 161t-181.5 455zM621 569q0 -78 31.5 -117.5t95.5 -39.5q77 0 141.5 63.5t100.5 159.5t36 188q0 80 -36 121t-101 41q-80 0 -141.5 -62.5t-94 -159.5t-32.5 -194z" />
<glyph unicode="A" horiz-adv-x="1296" d="M-86 0q141 428 313 774t402 660h209q135 -324 210.5 -671t100.5 -763h-203q-13 229 -33 395h-657q-59 -154 -139 -395h-203zM322 553h571q-55 377 -186 704q-229 -334 -385 -704z" />
<glyph unicode="B" horiz-adv-x="1265" d="M53 0l201 1434h477q197 0 309.5 -91.5t112.5 -252.5q0 -125 -62.5 -221.5t-160.5 -133.5q88 -35 143 -116.5t55 -184.5q0 -207 -144 -320.5t-406 -113.5h-525zM276 154h283q197 0 281 66.5t84 223.5q0 113 -71 162t-228 49h-277zM369 805h262q162 0 238.5 69.5 t76.5 215.5q0 96 -62.5 143t-193.5 47h-256z" />
<glyph unicode="C" horiz-adv-x="1247" d="M76 567q0 270 87 471t247.5 308.5t380.5 107.5q131 0 243.5 -44t179.5 -122q-20 -45 -52 -77.5t-58 -32.5q-27 0 -55 18q-70 51 -132.5 72.5t-132.5 21.5q-154 0 -266 -87t-171.5 -252t-59.5 -390q0 -416 368 -416q92 0 168 27t152 88q33 -2 53.5 -26.5t18.5 -59.5 q-4 -51 -63.5 -96t-153 -71.5t-195.5 -26.5q-268 0 -413.5 153.5t-145.5 433.5z" />
<glyph unicode="D" horiz-adv-x="1382" d="M45 0l201 1434h438q279 0 435.5 -155t156.5 -427q0 -256 -94.5 -448.5t-268.5 -298t-403 -105.5h-465zM270 154h228q178 0 307 82.5t196.5 238.5t67.5 371q0 213 -105.5 323.5t-308.5 110.5h-227z" />
<glyph unicode="E" horiz-adv-x="1146" d="M45 0l201 1434h870l-20 -154h-668l-66 -467h568l-21 -156h-569l-70 -503h676q-14 -90 -39.5 -122t-89.5 -32h-772z" />
<glyph unicode="F" horiz-adv-x="1085" d="M45 0l201 1434h858l-21 -154h-655l-66 -465h568l-23 -153h-565l-92 -662h-205z" />
<glyph unicode="G" horiz-adv-x="1378" d="M90 573q0 272 90 471t259 304.5t403 105.5q152 0 280.5 -51t188.5 -135q-29 -47 -60.5 -78t-56.5 -31q-18 0 -29.5 5t-27.5 20q-132 108 -303 108h-3q-251 0 -391.5 -190.5t-140.5 -530.5q0 -211 95 -320.5t282 -109.5q96 0 172 21.5t121 60.5l55 391h-233 q-39 0 -56.5 20.5t-17.5 67.5q0 25 6 70h526l-88 -622q-180 -170 -485 -170q-276 0 -431 156.5t-155 436.5z" />
<glyph unicode="H" horiz-adv-x="1406" d="M45 0l201 1434h205l-86 -621h673l86 621h203l-201 -1434h-202l92 655h-674l-92 -655h-205z" />
<glyph unicode="I" horiz-adv-x="716" d="M139 0l201 1434h205l-201 -1434h-205z" />
<glyph unicode="J" horiz-adv-x="888" d="M-70 35q10 74 32 106.5t50 32.5q14 0 49 -10q41 -12 72 -18.5t74 -6.5q109 0 173 61.5t79 180.5l149 1053h203l-147 -1053q-27 -182 -154 -291.5t-315 -109.5q-76 0 -154 17t-111 38z" />
<glyph unicode="K" horiz-adv-x="1290" d="M82 0l201 1434h202l-88 -625h113q25 0 35 -2l545 627h223l-598 -678q76 -53 135 -170l278 -578q-51 -26 -124 -26h-5q-45 0 -69.5 14t-40.5 49l-232 483q-37 78 -79.5 102.5t-143.5 24.5h-57l-92 -655h-203z" />
<glyph unicode="L" horiz-adv-x="1050" d="M59 0l201 1434h203l-180 -1280h641l-21 -154h-844z" />
<glyph unicode="M" horiz-adv-x="1710" d="M20 0q133 817 367 1434h225q86 -322 127 -504t72 -387q96 231 190.5 419.5t253.5 471.5h228q22 -225 22 -516q0 -412 -51 -918h-205q63 633 64 1051l-2 123q-113 -209 -213.5 -424t-257.5 -580h-154q-43 305 -86 530.5t-106 479.5q-168 -535 -271 -1180h-203z" />
<glyph unicode="N" horiz-adv-x="1419" d="M45 0l201 1434h174q27 0 42 -8.5t30 -32.5l514 -869l124 910h203l-162 -1153q-23 -145 -24 -226q-2 -27 -18.5 -41t-41.5 -14h-157l14 98q2 14 2 45q0 98 -49 183l-487 825l-162 -1151h-203z" />
<glyph unicode="O" horiz-adv-x="1406" d="M61 573q0 266 87.5 466t247 307.5t374.5 107.5q256 0 399.5 -150.5t143.5 -422.5q0 -281 -84 -483.5t-244 -310t-379 -107.5q-256 0 -400.5 157.5t-144.5 435.5zM268 573q0 -207 90.5 -319.5t253.5 -112.5q236 0 364 191.5t128 541.5q0 201 -88 309.5t-254 108.5 q-154 0 -264.5 -86t-170 -247.5t-59.5 -385.5z" />
<glyph unicode="P" horiz-adv-x="1259" d="M53 0l201 1434h432q252 0 382 -102.5t130 -301.5q0 -256 -158.5 -393t-453.5 -137h-260l-70 -500h-203zM348 664h227q216 0 316 88t100 278q0 125 -82 186.5t-252 61.5h-223z" />
<glyph unicode="Q" horiz-adv-x="1392" d="M61 573q0 266 87.5 466t247 307.5t374.5 107.5q256 0 399.5 -150.5t143.5 -422.5q0 -320 -108.5 -537t-309.5 -307q59 -86 109 -150q-25 -29 -62 -45t-80 -16q-76 0 -114 65q-31 55 -48 95q-45 -6 -94 -6q-256 0 -400.5 157.5t-144.5 435.5zM268 573q0 -207 90.5 -319.5 t253.5 -112.5h15l-82 185h186q35 -78 74 -144q145 68 222 245t77 447q0 201 -88 309.5t-254 108.5q-154 0 -264.5 -86t-170 -247.5t-59.5 -385.5z" />
<glyph unicode="R" horiz-adv-x="1296" d="M53 0l201 1434h471q236 0 362.5 -93.5t126.5 -267.5q0 -168 -106.5 -293t-280.5 -170q49 -53 80 -125l197 -473q-51 -28 -118 -28h-5q-47 0 -73.5 16t-39.5 51l-153 381q-33 82 -88.5 116t-161.5 34h-127l-82 -582h-203zM360 739h254q188 0 290 83t102 239 q0 215 -310 215h-262z" />
<glyph unicode="S" horiz-adv-x="1314" d="M66 276q0 68 44 106t123 40q6 -135 96.5 -209t252.5 -74q176 0 272 71t96 202q0 70 -28.5 113.5t-98 78.5t-205.5 74q-223 63 -318 153.5t-95 239.5q0 113 65.5 200t183 135t271.5 48q205 0 342 -89t164 -239q-27 -25 -61.5 -41t-61.5 -16q-29 0 -46.5 12.5t-33.5 46.5 q-41 82 -123 125t-196 43q-137 0 -216 -56t-79 -153q0 -61 24.5 -101t86 -72.5t177.5 -67.5q180 -57 279.5 -109.5t141.5 -118t42 -161.5q0 -223 -155.5 -350t-429.5 -127q-150 0 -266.5 37.5t-182 105t-65.5 153.5z" />
<glyph unicode="T" horiz-adv-x="1093" d="M94 1276l21 158h1032q2 -8 2 -31t-2 -33q-14 -94 -94 -94h-344l-179 -1276h-200l178 1276h-414z" />
<glyph unicode="U" horiz-adv-x="1452" d="M115 391q0 51 10 123l129 920h203l-133 -949q-6 -39 -7 -77q0 -135 78 -202t236 -67q182 0 280.5 85t122.5 261l133 949h203l-129 -920q-37 -272 -191.5 -403t-441.5 -131h-2q-491 0 -491 411z" />
<glyph unicode="V" horiz-adv-x="1306" d="M139 1434h211q0 -684 217 -1217q365 532 557 1217h211q-111 -391 -282.5 -743.5t-417.5 -690.5h-195q-150 336 -223.5 687t-77.5 747z" />
<glyph unicode="W" horiz-adv-x="1779" d="M115 1434h202v-115q0 -266 22.5 -501.5t82.5 -584.5q115 246 211 482.5t276 718.5h142q68 -575 95.5 -780t63.5 -414q162 362 254 619t176 575h193q-92 -344 -212 -659.5t-333 -774.5h-223q-66 387 -94.5 608t-42.5 432q-76 -223 -168 -447t-258 -593h-223 q-86 430 -124 756.5t-40 677.5z" />
<glyph unicode="X" horiz-adv-x="1206" d="M-82 0q53 168 138 302t182.5 236.5t230.5 219.5q-96 117 -159.5 209t-107.5 209.5t-52 257.5h208q12 -164 76 -290t176 -261q152 137 250 263t156 288h207q-47 -140 -124 -257.5t-166 -210t-218 -208.5q100 -117 168.5 -219.5t116 -236.5t53.5 -302h-211 q-4 186 -74 330.5t-195 300.5q-168 -154 -276.5 -299.5t-165.5 -331.5h-213z" />
<glyph unicode="Y" horiz-adv-x="1208" d="M119 1434h213l266 -650l449 650h210l-585 -832l-84 -602h-201l84 602z" />
<glyph unicode="Z" horiz-adv-x="1187" d="M-12 0l20 150l907 1134h-751l20 150h971l-22 -158l-893 -1126h751l-20 -150h-983z" />
<glyph unicode="[" horiz-adv-x="796" d="M45 -180l268 1911h457l-16 -129h-260l-232 -1653h258l-18 -129h-457z" />
<glyph unicode="\" horiz-adv-x="684" d="M-152 1661h160l844 -1774h-160z" />
<glyph unicode="]" horiz-adv-x="796" d="M27 -180l16 129h260l232 1653h-259l19 129h457l-269 -1911h-456z" />
<glyph unicode="^" horiz-adv-x="1345" d="M88 664l606 956h174l340 -956h-202l-263 725l-452 -725h-203z" />
<glyph unicode="_" horiz-adv-x="1400" d="M-168 -358l21 149h1400l-20 -149h-1401z" />
<glyph unicode="`" horiz-adv-x="497" d="M72 1597h221l135 -309h-158z" />
<glyph unicode="a" horiz-adv-x="1148" d="M16 272q0 199 195 297.5t569 114.5l11 80q4 41 4 57q0 88 -52.5 132t-160.5 44q-98 0 -175 -37.5t-165 -109.5q-12 -10 -29 -10q-27 0 -54.5 28.5t-45.5 75.5q94 90 225 146.5t280 56.5q176 0 273.5 -84t97.5 -232q0 -45 -4 -67l-61 -436q-12 -86 -13 -140 q0 -49 10.5 -82.5t30.5 -64.5q-33 -23 -74.5 -38t-76.5 -15q-88 0 -88 150v20q-150 -178 -383 -178q-139 0 -226.5 76.5t-87.5 215.5zM217 285q0 -164 176 -164q92 0 178 57.5t160 159.5l31 219q-291 -10 -418 -76.5t-127 -195.5z" />
<glyph unicode="b" horiz-adv-x="1249" d="M18 35q31 41 51.5 103.5t39.5 183.5l182 1298h196l-79 -567q141 94 313 94q190 0 305 -123t115 -334q0 -203 -63.5 -364.5t-187.5 -253.5t-298 -92q-104 0 -188.5 36.5t-135.5 102.5q-39 -123 -104 -123q-80 0 -146 39zM299 279q90 -154 276 -154q177 0 272 158.5 t95 402.5q0 154 -72.5 237t-191.5 83q-150 0 -293 -111z" />
<glyph unicode="c" horiz-adv-x="1140" d="M29 463q0 207 72.5 361.5t206.5 238.5t315 84q197 -1 311 -99q109 -94 108 -254v-14q-80 -37 -129 -37q-47 0 -53 68q-4 94 -69.5 145.5t-180.5 51.5q-178 0 -280.5 -142.5t-102.5 -390.5q0 -162 78 -256t211 -94q115 0 188.5 53t135.5 182q53 0 82.5 -27.5t29.5 -76.5 q0 -78 -56 -141.5t-156.5 -99t-223.5 -35.5q-227 0 -357 129t-130 354z" />
<glyph unicode="d" horiz-adv-x="1224" d="M27 420q0 215 75.5 380t214 256t318.5 91q70 0 142.5 -23.5t119.5 -58.5l78 555h194l-182 -1305q-16 -115 -16 -178q0 -51 16 -108q-82 -39 -149 -39q-66 0 -66 127v8q-143 -145 -348 -145q-186 0 -291.5 116.5t-105.5 323.5zM223 426q0 -305 238 -305q96 0 177 43 t150 131l86 612q-37 45 -105.5 74t-141.5 29q-119 0 -211 -73t-142.5 -205t-50.5 -306z" />
<glyph unicode="e" horiz-adv-x="1161" d="M47 453q0 215 70.5 371.5t203 239.5t314.5 83q209 0 314.5 -104.5t105.5 -307.5q0 -82 -17 -200h-790q-2 -25 -2 -76q0 -160 72.5 -247t201.5 -87q111 0 183.5 37t130.5 125q18 27 45 26q45 0 118 -57q-68 -137 -191.5 -206.5t-297.5 -69.5q-211 0 -336 128t-125 345z M264 666h600q6 43 6 94q0 123 -62.5 186.5t-182.5 63.5q-142 0 -234 -89.5t-127 -254.5z" />
<glyph unicode="f" horiz-adv-x="706" d="M41 993l18 133h197l20 146q20 156 116.5 246t242.5 90q98 0 148.5 -28t50.5 -77q0 -25 -11.5 -46t-25.5 -25q-59 30 -141 30h-5q-152 0 -182 -192l-20 -144h241l-18 -133h-242l-137 -993h-195l140 993h-197z" />
<glyph unicode="g" horiz-adv-x="1198" d="M-47 -143q0 102 71.5 170.5t196.5 85.5v6q-59 14 -93 51t-34 90q0 63 50.5 110.5t136.5 65.5q-78 43 -121 114t-43 159q0 213 130 325.5t376 112.5q150 0 254 -64q61 55 128.5 89t124.5 34q41 0 59.5 -20.5t18.5 -63.5q0 -45 -12 -82q-158 0 -221 -43q59 -78 59 -180 q0 -440 -512 -440q-135 0 -197.5 -19.5t-62.5 -62.5q0 -39 65.5 -56.5t219.5 -17.5q219 0 334.5 -70.5t115.5 -201.5q0 -174 -148.5 -270.5t-416.5 -96.5q-231 0 -355 72t-124 203zM156 -123q0 -78 68.5 -114.5t213.5 -36.5q178 0 271.5 52t93.5 152q0 76 -74 110t-235 34 q-166 0 -252 -50.5t-86 -146.5zM317 715q0 -197 222 -197q149 0 222 75t73 228q0 96 -56.5 142.5t-171.5 46.5q-289 0 -289 -295z" />
<glyph unicode="h" horiz-adv-x="1290" d="M43 0l227 1620h193l-86 -619q92 68 201.5 107t214.5 39q147 0 231 -79t84 -218q0 -43 -4 -66l-111 -784h-192l106 762q4 41 4 55q0 180 -184 180q-82 0 -181.5 -37.5t-189.5 -103.5l-120 -856h-193z" />
<glyph unicode="i" horiz-adv-x="589" d="M82 0l158 1126h192l-158 -1126h-192zM254 1423q0 16 2 25l4 22q16 115 129 115h21q102 0 102 -90q0 -16 -2 -25l-4 -22q-16 -115 -131 -115h-21q-100 0 -100 90z" />
<glyph unicode="j" horiz-adv-x="552" d="M-295 -322q0 25 16.5 50.5t28.5 27.5q55 -30 139 -30h5q61 0 100 36.5t49 110.5l176 1253h193l-174 -1235q-20 -143 -108.5 -221t-233.5 -78q-54 0 -106 14.5t-73 37.5q-12 14 -12 34zM233 1423q0 16 2 25l4 22q16 115 129 115h21q102 0 102 -90q0 -16 -2 -25l-4 -22 q-16 -115 -131 -115h-21q-100 0 -100 90z" />
<glyph unicode="k" horiz-adv-x="1167" d="M55 0l228 1620h194l-133 -956l66 2q55 2 91 20.5t70 65.5l312 374h227l-381 -432q-6 -6 -21.5 -25.5t-33 -33.5t-37.5 -25q98 -24 137 -106l246 -504q-59 0 -107 -6l-53 -2q-33 0 -52.5 12t-29.5 37l-174 379q-25 52 -72 74q-43 21 -118 20h-13l-79 -4l-72 -510h-195z " />
<glyph unicode="l" horiz-adv-x="548" d="M61 0l228 1620h192l-227 -1620h-193z" />
<glyph unicode="m" horiz-adv-x="1867" d="M57 0l105 737q28 188 28 306v8q0 35 -2 45q37 16 76 27.5t68 11.5q63 0 63 -91q0 -27 -2 -40q86 76 172 109.5t191 33.5q96 0 163.5 -42t96.5 -118q88 82 181 121t206 39q135 0 213 -76t78 -205q0 -41 -4 -63l-111 -803h-197l111 797q6 35 6 63q0 76 -40 113t-124 37 q-154 0 -301 -144l-4 -39l-115 -827h-192l113 817q4 29 4 43q0 72 -41 111t-115 39q-78 0 -153.5 -37t-157.5 -117l-121 -856h-195z" />
<glyph unicode="n" horiz-adv-x="1249" d="M47 0l105 748q28 204 28 288v6q0 31 -4 56q104 37 158 37q53 0 53 -74q0 -12 -4 -45l-2 -21q111 82 202 117t189 35q305 0 305 -287q0 -29 -8 -98l-70 -494q-18 -135 -18 -180q0 -41 8 -68q-74 -30 -153 -30h-5q-25 0 -37 18.5t-12 63.5q0 33 15 137l77 549q6 43 7 78 q0 86 -41 125.5t-129 39.5q-156 0 -353 -155l-116 -846h-195z" />
<glyph unicode="o" horiz-adv-x="1136" d="M25 420q0 223 69.5 387t200.5 252t309 88q211 0 320.5 -109.5t109.5 -322.5q0 -225 -70.5 -391t-201.5 -255t-307 -89q-211 0 -320.5 111.5t-109.5 328.5zM221 416q0 -150 60.5 -222.5t185.5 -72.5q174 0 271.5 156.5t97.5 437.5q0 147 -60.5 219t-183.5 72 q-174 0 -272.5 -156t-98.5 -434z" />
<glyph unicode="p" horiz-adv-x="1224" d="M-12 -457l166 1188q26 179 26 272v7q0 47 -14 82q90 43 156 43q63 0 63 -103v-10q141 125 336 125q192 0 297.5 -120t105.5 -339q0 -215 -73.5 -374.5t-208.5 -246.5t-316 -87q-76 0 -149.5 13t-126.5 36l-68 -486h-194zM270 174q106 -53 246 -53q189 0 298.5 151.5 t109.5 413.5q0 158 -62.5 239t-183.5 81q-168 0 -313 -150z" />
<glyph unicode="q" horiz-adv-x="1245" d="M27 455q0 209 69.5 365.5t196.5 241.5t295 85q213 0 317 -117q37 104 99 105q75 0 141 -43q-29 -43 -56.5 -141.5t-44.5 -223.5l-165 -1184h-195l74 520q-129 -83 -289 -83h-4q-131 0 -230.5 58t-153.5 165.5t-54 251.5zM225 453q0 -158 74 -247t203 -89q76 0 147.5 27.5 t130.5 80.5l88 635l2 14q-45 66 -113.5 101t-156.5 35q-113 0 -198 -68t-131 -193.5t-46 -295.5z" />
<glyph unicode="r" horiz-adv-x="845" d="M43 0l158 1126h194l-26 -186q59 90 145 145.5t176 55.5q148 -1 148 -101l-2 -20q-10 -51 -39 -80q-49 27 -135 27q-133 0 -224.5 -99.5t-118.5 -273.5l-81 -594h-195z" />
<glyph unicode="s" horiz-adv-x="1007" d="M-12 184q0 45 27.5 76t80.5 39q41 -84 120 -131t194 -47q123 0 192.5 50t69.5 142q0 70 -58.5 108t-181.5 83q-106 37 -172.5 70.5t-114 94t-47.5 154.5q0 104 59.5 177t157 110t209.5 37q145 0 247.5 -53.5t152.5 -151.5q-31 -35 -63 -55.5t-56 -20.5q-29 0 -51 29 q-80 115 -236 115q-104 0 -167.5 -43t-63.5 -119t61.5 -118t188.5 -87q106 -39 170.5 -71.5t109.5 -91t45 -148.5q0 -164 -125 -258t-342 -94q-114 0 -207.5 27.5t-146.5 74.5t-53 102z" />
<glyph unicode="t" horiz-adv-x="786" d="M45 989l21 137h198l43 308h195l-43 -308h268l-20 -137h-267l-100 -708q-4 -33 -4 -45q0 -113 115 -113q82 0 174 35q28 -15 28 -55q0 -30 -9 -46t-32 -30q-31 -23 -87 -35t-122 -12q-123 0 -194.5 62t-71.5 167q0 16 4 45l103 735h-199z" />
<glyph unicode="u" horiz-adv-x="1263" d="M98 287q0 39 6 82l107 757h195l-107 -753q-6 -39 -6 -72q0 -94 46 -139t142 -45q190 0 334 186l117 823h194l-122 -880q-12 -76 -13 -129q0 -53 13 -97q-66 -30 -130 -30h-4q-43 0 -61 22.5t-18 81.5q0 25 2 39q-66 -74 -160 -113.5t-203 -39.5q-160 0 -246 79.5 t-86 227.5z" />
<glyph unicode="v" horiz-adv-x="1058" d="M74 967q0 104 4 159h196q-6 -86 -6 -165q0 -219 42 -406.5t132 -366.5q160 209 260.5 433.5t159.5 504.5h201q-72 -326 -207 -600t-348 -526h-184q-127 221 -188.5 457.5t-61.5 509.5z" />
<glyph unicode="w" horiz-adv-x="1583" d="M98 1006l2 120h193q-4 -80 -4 -225q0 -209 19.5 -367.5t64.5 -297.5q238 381 372 890h177v-69q0 -477 120 -826q104 184 179 401.5t131 493.5h207q-150 -627 -465 -1126h-156q-72 197 -109.5 375t-46.5 375q-66 -193 -153.5 -371t-214.5 -379h-158q-82 213 -120 456.5 t-38 549.5z" />
<glyph unicode="x" horiz-adv-x="1015" d="M-84 0q35 162 145.5 295t296.5 291q-134 154 -204 276q-62 109 -63 235q0 15 1 29h195q-1 -11 -1 -22q0 -97 47 -187q52 -100 154 -219q135 117 217 217.5t107 210.5h195q-33 -143 -136.5 -265t-281.5 -275q141 -158 215 -291q64 -116 65 -254q0 -20 -2 -41h-194 q1 12 1 24q1 114 -51 214q-56 110 -165 235q-141 -125 -229.5 -235.5t-116.5 -237.5h-195z" />
<glyph unicode="y" horiz-adv-x="1028" d="M-152 -303q0 55 52 84q20 -16 57 -25.5t76 -9.5q82 0 146.5 64.5t125.5 207.5l-246 1108h199l178 -858l414 858h207l-606 -1212q-90 -176 -186.5 -251t-235.5 -75q-84 0 -132.5 29t-48.5 80z" />
<glyph unicode="z" horiz-adv-x="1038" d="M-55 0l16 125l764 856h-590l21 145h845l-18 -122l-762 -859h658l-19 -145h-915z" />
<glyph unicode="{" horiz-adv-x="745" d="M63 684l13 88q80 14 117.5 61.5t50.5 122.5l61 437q16 121 95 192.5t192 71.5h133l-18 -131h-64q-131 0 -154 -148l-57 -407q-14 -109 -62 -164t-132 -76l-2 -6q66 -14 99.5 -56t33.5 -120q0 -39 -4 -62l-58 -407q-2 -12 -2 -37q0 -111 113 -111h65l-18 -133h-133 q-99 0 -158 57.5t-59 155.5q0 16 4 54l61 436q2 14 2 43q0 57 -27.5 92t-91.5 47z" />
<glyph unicode="|" horiz-adv-x="524" d="M53 -25l234 1667h176l-234 -1667h-176z" />
<glyph unicode="}" horiz-adv-x="745" d="M20 -201l19 131h63q131 0 154 148l57 407q14 109 62.5 164.5t132.5 75.5l2 6q-66 14 -99.5 56t-33.5 120q0 39 4 62l57 407q2 12 2 37q0 111 -112 111h-66l19 133h133q98 0 157.5 -57.5t59.5 -155.5q0 -16 -4 -53l-62 -437q-2 -14 -2 -43q0 -57 27.5 -92t91.5 -47 l-12 -88q-80 -14 -118 -61.5t-50 -122.5l-62 -437q-16 -121 -95 -192.5t-191 -71.5h-134z" />
<glyph unicode="~" d="M61 545q55 82 137.5 133t188.5 51q63 0 109.5 -20.5t107.5 -59.5q53 -35 95 -53t96 -18q76 0 123 36.5t96 116.5l90 -84q-45 -94 -129 -151.5t-199 -57.5q-70 0 -119 21.5t-106 60.5q-57 37 -94 53.5t-88 16.5q-125 0 -224 -154z" />
<glyph unicode="&#xa1;" horiz-adv-x="497" d="M10 -287l185 998h141l-96 -998h-230zM180 989q0 16 2 25l4 22q16 115 129 115h21q102 0 102 -90q0 -16 -2 -25l-4 -22q-16 -115 -131 -115h-20q-100 0 -101 90z" />
<glyph unicode="&#xa2;" horiz-adv-x="1120" d="M29 463q0 207 72.5 361.5t206.5 238.5t315 84q66 0 108 -8l80 168h121l-94 -201q100 -41 153 -126t51 -200q-80 -37 -129 -37q-47 0 -53 68q-6 109 -88 158l-383 -815q57 -29 127 -29q115 0 188.5 53t135.5 182q53 0 82.5 -27.5t29.5 -76.5q0 -78 -56 -141.5t-156.5 -99 t-223.5 -35.5q-109 0 -194 30l-82 -174h-123l104 221q-92 61 -142 165t-50 241zM227 475q0 -158 74 -250l367 779q-37 4 -58 4q-178 0 -280.5 -142.5t-102.5 -390.5z" />
<glyph unicode="&#xa3;" horiz-adv-x="1247" d="M-88 -20l25 167q166 23 232.5 120.5t66.5 279.5l-3 102h-231l18 133h205q-4 98 -4 140q0 254 121 393t352 139q184 0 302 -94t126 -260q-25 -18 -62.5 -31.5t-66.5 -13.5q-45 0 -55 55q-37 199 -252 199q-158 0 -217 -98.5t-59 -288.5q0 -45 4 -140h317l-18 -133h-293 q4 -82 4 -112q0 -195 -88 -330q113 -82 233 -82q113 0 187.5 57.5t113.5 198.5l164 -25q-35 -170 -156.5 -273t-299.5 -103q-119 0 -202 26.5t-151 81.5q-129 -94 -313 -108z" />
<glyph unicode="&#xa4;" horiz-adv-x="1247" d="M-14 250l137 121q-78 106 -78 264q0 45 6 88q29 201 170 348l-104 121l94 86l111 -125q82 61 174 93t188 32q195 0 332 -125l139 125l74 -86l-137 -121q78 -113 77 -260q0 -41 -6 -88q-12 -100 -55 -190.5t-115 -161.5l105 -121l-99 -84l-106 121q-174 -121 -365 -121 q-197 0 -329 121l-144 -121zM233 659q0 -141 87.5 -229t232.5 -88q106 0 198.5 48t152 135t73.5 198q4 23 4 65q0 141 -88 228.5t-234 87.5q-106 0 -197 -48t-150.5 -135t-73.5 -198q-4 -45 -5 -64z" />
<glyph unicode="&#xa5;" horiz-adv-x="1208" d="M90 344l16 115h345l20 143l-16 39h-322l17 115h256l-287 678h213l266 -650l449 650h210l-477 -678h258l-16 -115h-324l-26 -39l-21 -143h344l-16 -115h-344l-47 -344h-201l47 344h-344z" />
<glyph unicode="&#xa6;" horiz-adv-x="524" d="M53 -25l88 629h176l-88 -629h-176zM199 1014l88 628h176l-88 -628h-176z" />
<glyph unicode="&#xa7;" horiz-adv-x="997" d="M16 111l177 18q-4 -78 41 -124t149 -46q102 0 161.5 52t59.5 141q0 43 -23.5 73.5t-74.5 53.5l-260 120q-166 78 -166 265q0 25 4 69h182q-4 -29 -4 -41q0 -131 137 -194l236 -115q74 -35 112.5 -94.5t38.5 -132.5q0 -164 -114.5 -250t-294.5 -86q-174 0 -271.5 81 t-89.5 210zM158 1118q0 156 115.5 243t287.5 87q178 0 274.5 -81t86.5 -210l-174 -18q0 80 -43 125t-150 45q-102 0 -161.5 -48.5t-59.5 -136.5q0 -43 25.5 -71.5t80.5 -55.5l260 -123q160 -72 160 -258q0 -39 -6 -81h-182q4 33 4 47q0 131 -123 188l-244 115 q-72 33 -111.5 93t-39.5 140z" />
<glyph unicode="&#xa8;" horiz-adv-x="645" d="M80 1391q0 16 2 24l2 21q14 106 121 106h18q94 0 94 -82q0 -16 -2 -24l-2 -21q-16 -106 -120 -106h-19q-94 0 -94 82zM496 1391q0 16 2 24l2 21q14 106 121 106h18q94 0 94 -86l-2 -20l-4 -21q-12 -106 -119 -106h-20q-92 0 -92 82z" />
<glyph unicode="&#xa9;" horiz-adv-x="1585" d="M31 621q0 236 107.5 426t298 298.5t427.5 108.5q201 0 349.5 -79t228.5 -221t80 -329q0 -236 -105.5 -429t-296 -304.5t-434.5 -111.5q-199 0 -347.5 81.5t-228 227t-79.5 332.5zM150 625q0 -160 69.5 -284t192.5 -192.5t280 -68.5q203 0 366 97t255 266t92 376 q0 160 -69.5 282t-192.5 187.5t-283 65.5q-205 0 -366.5 -94.5t-252.5 -260t-91 -374.5zM375 633q0 150 58.5 269.5t167 189t251.5 69.5q150 0 231.5 -70.5t96.5 -205.5l-140 -39q-8 92 -54 140t-146 48q-150 0 -227.5 -108.5t-77.5 -278.5q0 -115 57 -182.5t164 -67.5 q162 0 235 156l135 -41q-53 -115 -148 -178.5t-235 -63.5q-174 0 -271 97.5t-97 265.5z" />
<glyph unicode="&#xaa;" horiz-adv-x="778" d="M92 920q0 154 131 205t371 53l2 53q0 115 -129 115q-92 0 -172 -54q-25 -16 -39 -21t-31 -5q-25 0 -41 23.5t-20 58.5q139 111 338 110q109 0 179.5 -54t70.5 -159q0 -53 -12.5 -129t-14.5 -90q-25 -143 -25 -197q0 -41 13 -65q-41 -27 -105 -27q-66 0 -65 84v17 q-88 -102 -238 -103q-94 0 -153.5 48t-59.5 137zM246 932q0 -39 25.5 -62.5t72.5 -23.5q59 0 118.5 31.5t96.5 83.5l21 116q-162 -2 -248 -31.5t-86 -113.5z" />
<glyph unicode="&#xab;" horiz-adv-x="1071" d="M88 590l309 336h180l-290 -336l194 -350h-180zM447 590l309 336h180l-290 -336l194 -350h-180z" />
<glyph unicode="&#xac;" d="M72 614l20 152h1004l-76 -541h-182l55 389h-821z" />
<glyph unicode="&#xad;" horiz-adv-x="778" d="M43 561l18 135h615l-19 -135h-614z" />
<glyph unicode="&#xae;" horiz-adv-x="1585" d="M31 621q0 236 107.5 426t298 298.5t427.5 108.5q201 0 349.5 -79t228.5 -221t80 -329q0 -236 -105.5 -429t-296 -304.5t-434.5 -111.5q-199 0 -347.5 81.5t-228 227t-79.5 332.5zM150 625q0 -160 69.5 -284t192.5 -192.5t280 -68.5q203 0 366 97t255 266t92 376 q0 160 -69.5 282t-192.5 187.5t-283 65.5q-205 0 -366.5 -94.5t-252.5 -260t-91 -374.5zM432 297l115 815h334q127 0 202.5 -60.5t75.5 -166.5q0 -111 -59.5 -182.5t-159.5 -96.5l131 -309h-170l-117 297h-151l-43 -297h-158zM649 719h164q182 0 182 164q0 106 -143 106 h-164z" />
<glyph unicode="&#xaf;" horiz-adv-x="497" d="M-16 1333l20 150h668l-21 -150h-667z" />
<glyph unicode="&#xb0;" horiz-adv-x="897" d="M184 1286q0 96 46 178t129 130t192 48q133 0 215 -83.5t82 -217.5q0 -96 -46 -178t-129 -130t-192 -48q-131 0 -214 84t-83 217zM301 1286q0 -86 52.5 -138t135.5 -52q115 0 177.5 66.5t62.5 178.5q0 88 -49 139.5t-137 51.5q-113 0 -177.5 -67.5t-64.5 -178.5z" />
<glyph unicode="&#xb1;" d="M-35 0l19 135h1065l-19 -135h-1065zM63 707l19 133h465l63 448h138l-62 -448h461l-19 -133h-460l-66 -451h-137l63 451h-465z" />
<glyph unicode="&#xb2;" horiz-adv-x="712" d="M14 578l17 104l49 27q162 88 257 150.5t159.5 143t64.5 177.5q0 70 -36 107.5t-103 37.5q-78 0 -128 -46t-67 -124q-109 0 -108 80q0 55 42 105.5t114.5 82t158.5 31.5q137 0 213 -75.5t76 -196.5q0 -107 -58.5 -192t-148.5 -147.5t-225 -135.5h352l-18 -129h-611z" />
<glyph unicode="&#xb3;" horiz-adv-x="739" d="M31 709q0 68 73 82q43 -49 99.5 -76t138.5 -27q98 0 150.5 43t52.5 123q0 119 -137 119l-52 -2q-16 -2 -43 -2q-18 0 -36.5 35.5t-18.5 62.5q0 10 6 16.5t17 6.5h127q86 0 125.5 38.5t39.5 100.5q0 53 -35.5 82.5t-107.5 29.5q-76 0 -128 -29.5t-99 -88.5q-27 0 -46.5 16 t-19.5 45q0 72 92.5 121t221.5 49q123 0 198.5 -61.5t75.5 -157.5q0 -72 -37 -123t-113 -76q56 -24 89.5 -71t33.5 -117q0 -131 -98 -205t-270 -74q-127 0 -213 39t-86 101z" />
<glyph unicode="&#xb4;" horiz-adv-x="497" d="M190 1288l240 309h236l-293 -309h-183z" />
<glyph unicode="&#xb6;" horiz-adv-x="1146" d="M74 1034q0 154 70.5 267.5t198.5 174t292 60.5h610l-18 -129h-156l-197 -1407h-163l196 1407h-205l-196 -1407h-164l94 672q-104 2 -186 50t-129 130t-47 182z" />
<glyph unicode="&#xb7;" horiz-adv-x="630" d="M156 573q0 16 2 25l2 22q18 115 131 115h21q100 0 100 -86q0 -18 -2 -29l-2 -22q-16 -115 -131 -115h-21q-100 0 -100 90z" />
<glyph unicode="&#xb8;" horiz-adv-x="503" d="M-160 -393q0 20 13 45q80 -23 167 -23q63 0 100.5 27t37.5 70q0 27 -21.5 44t-60.5 17q-29 0 -76 -12l-39 71l133 154h139l-110 -111h16q80 0 129 -37.5t49 -103.5q0 -106 -83.5 -164.5t-206.5 -58.5q-94 0 -140.5 21.5t-46.5 60.5z" />
<glyph unicode="&#xb9;" horiz-adv-x="776" d="M92 578l19 124h184l82 586q-96 -74 -158 -74q-80 0 -80 80q0 18 2 27q66 6 149 44t136 89h127l-104 -752h172l-19 -124h-510z" />
<glyph unicode="&#xba;" horiz-adv-x="778" d="M90 1014q0 125 46 225t134 157.5t207 57.5q139 0 211 -78t72 -211q0 -121 -47 -220t-133 -156.5t-203 -57.5q-141 0 -214 77t-73 206zM246 1012q0 -88 36.5 -128t108.5 -40q111 0 163 95t52 235q0 168 -143 167q-111 0 -164 -96t-53 -233z" />
<glyph unicode="&#xbb;" horiz-adv-x="1071" d="M135 240l291 335l-195 351h181l213 -351l-310 -335h-180zM494 240l290 335l-194 351h180l213 -351l-309 -335h-180z" />
<glyph unicode="&#xbc;" horiz-adv-x="2054" d="M92 578l19 124h184l82 586q-96 -74 -158 -74q-80 0 -80 80q0 18 2 27q66 6 149 44t136 89h127l-104 -752h172l-19 -124h-510zM520 0l844 1434h147l-844 -1434h-147zM1223 186l10 70q143 164 223 302t113 308q27 6 51 6q43 0 66.5 -20.5t19.5 -59.5q-8 -109 -89 -244 t-187 -243h235l33 223h154l-33 -223h111l-17 -119h-110l-27 -186h-154l27 186h-426z" />
<glyph unicode="&#xbd;" horiz-adv-x="1972" d="M92 578l19 124h184l82 586q-96 -74 -158 -74q-80 0 -80 80q0 18 2 27q66 6 149 44t136 89h127l-104 -752h172l-19 -124h-510zM520 0l844 1434h147l-844 -1434h-147zM1194 3l17 104l49 27q162 88 257 150.5t159.5 143t64.5 177.5q0 70 -36 107.5t-103 37.5q-78 0 -128 -46 t-67 -124q-109 0 -108 80q0 55 42 105.5t114.5 82t158.5 31.5q137 0 213 -75.5t76 -196.5q0 -107 -58.5 -192t-148.5 -147.5t-225 -135.5h352l-18 -129h-611z" />
<glyph unicode="&#xbe;" horiz-adv-x="2009" d="M31 709q0 68 73 82q43 -49 99.5 -76t138.5 -27q98 0 150.5 43t52.5 123q0 119 -137 119l-52 -2q-16 -2 -43 -2q-18 0 -36.5 35.5t-18.5 62.5q0 10 6 16.5t17 6.5h127q86 0 125.5 38.5t39.5 100.5q0 53 -35.5 82.5t-107.5 29.5q-76 0 -128 -29.5t-99 -88.5q-27 0 -46.5 16 t-19.5 45q0 72 92.5 121t221.5 49q123 0 198.5 -61.5t75.5 -157.5q0 -72 -37 -123t-113 -76q56 -24 89.5 -71t33.5 -117q0 -131 -98 -205t-270 -74q-127 0 -213 39t-86 101zM483 0l844 1434h147l-844 -1434h-147zM1178 186l10 70q143 164 223 302t113 308q27 6 51 6 q43 0 66.5 -20.5t19.5 -59.5q-8 -109 -89 -244t-187 -243h235l33 223h154l-33 -223h111l-17 -119h-110l-27 -186h-154l27 186h-426z" />
<glyph unicode="&#xbf;" horiz-adv-x="972" d="M-29 8q0 90 32 155.5t82 113t142 114.5q100 76 152.5 134.5t66.5 148.5l9 49h176l-13 -76q-16 -109 -82.5 -186.5t-183.5 -167.5q-96 -76 -141 -135.5t-45 -147.5q0 -84 53 -131t158 -47q115 0 182.5 62.5t106.5 166.5l159 -59q-45 -145 -170 -234.5t-299 -89.5 q-172 0 -278.5 90.5t-106.5 239.5zM449 969q0 35 6 55q14 111 129 111h20q103 0 103 -88q0 -10 -7 -60q-18 -104 -131 -104h-20q-100 0 -100 86z" />
<glyph unicode="&#xc0;" horiz-adv-x="1296" d="M-86 0q141 428 313 774t402 660h209q135 -324 210.5 -671t100.5 -763h-203q-13 229 -33 395h-657q-59 -154 -139 -395h-203zM322 553h571q-55 377 -186 704q-229 -334 -385 -704zM518 1822h221l135 -309h-158z" />
<glyph unicode="&#xc1;" horiz-adv-x="1296" d="M-86 0q141 428 313 774t402 660h209q135 -324 210.5 -671t100.5 -763h-203q-13 229 -33 395h-657q-59 -154 -139 -395h-203zM322 553h571q-55 377 -186 704q-229 -334 -385 -704zM609 1513l240 309h236l-293 -309h-183z" />
<glyph unicode="&#xc2;" horiz-adv-x="1296" d="M-86 0q141 428 313 774t402 660h209q135 -324 210.5 -671t100.5 -763h-203q-13 229 -33 395h-657q-59 -154 -139 -395h-203zM322 553h571q-55 377 -186 704q-229 -334 -385 -704zM428 1513l254 285h205l174 -285h-154l-133 170l-184 -170h-162z" />
<glyph unicode="&#xc3;" horiz-adv-x="1296" d="M-86 0q141 428 313 774t402 660h209q135 -324 210.5 -671t100.5 -763h-203q-13 229 -33 395h-657q-59 -154 -139 -395h-203zM322 553h571q-55 377 -186 704q-229 -334 -385 -704zM444 1607q0 76 59.5 116t141.5 40q45 0 77 -12.5t68 -34.5q33 -18 52.5 -26.5t46.5 -8.5 q47 0 70.5 22.5t33.5 65.5q92 0 92 -74q0 -66 -57 -112.5t-139 -46.5q-47 0 -80 12t-72 35q-35 18 -56.5 27.5t-49.5 9.5q-80 0 -103 -88q-84 -1 -84 75z" />
<glyph unicode="&#xc4;" horiz-adv-x="1296" d="M-86 0q141 428 313 774t402 660h209q135 -324 210.5 -671t100.5 -763h-203q-13 229 -33 395h-657q-59 -154 -139 -395h-203zM322 553h571q-55 377 -186 704q-229 -334 -385 -704zM438 1616q0 16 2 24l2 21q14 106 121 106h18q94 0 94 -82q0 -16 -2 -24l-2 -21 q-16 -106 -120 -106h-19q-94 0 -94 82zM854 1616q0 16 2 24l2 21q14 106 121 106h18q94 0 94 -86l-2 -20l-4 -21q-12 -106 -119 -106h-20q-92 0 -92 82z" />
<glyph unicode="&#xc5;" horiz-adv-x="1296" d="M-86 0q141 428 313 774t402 660h209q135 -324 210.5 -671t100.5 -763h-203q-13 229 -33 395h-657q-59 -154 -139 -395h-203zM322 553h571q-55 377 -186 704q-229 -334 -385 -704zM534 1722q0 119 80 195.5t195 76.5q90 0 150.5 -58t60.5 -148q0 -121 -79 -196t-194 -75 q-94 0 -153.5 57.5t-59.5 147.5zM661 1741q0 -45 28 -72t73 -27q55 0 92 38t37 95q0 43 -26.5 69t-69.5 26q-59 0 -96.5 -38t-37.5 -91z" />
<glyph unicode="&#xc6;" horiz-adv-x="1931" d="M-86 0q135 397 393 774t623 660h975l-21 -150h-667l-66 -459h580l-21 -149h-580l-73 -526h665q-12 -86 -39.5 -118t-101.5 -32h-731l59 422h-606q-117 -223 -182 -422h-207zM389 571h541l100 713h-18q-174 -133 -334 -316.5t-289 -396.5z" />
<glyph unicode="&#xc7;" horiz-adv-x="1247" d="M76 567q0 270 87 471t247.5 308.5t380.5 107.5q131 0 243.5 -44t179.5 -122q-20 -45 -52 -77.5t-58 -32.5q-27 0 -55 18q-70 51 -132.5 72.5t-132.5 21.5q-154 0 -266 -87t-171.5 -252t-59.5 -390q0 -416 368 -416q92 0 168 27t152 88q33 -2 53.5 -26.5t18.5 -59.5 q-8 -72 -115 -127t-250 -65l-92 -93h18q80 0 129 -37.5t49 -103.5q0 -106 -84 -164.5t-208 -58.5q-92 0 -139.5 21.5t-47.5 60.5q0 12 12 45q84 -23 170 -23q63 0 99.5 27t36.5 70q0 27 -20.5 44t-59.5 17q-33 0 -76 -12l-39 71l117 138q-225 25 -348 176t-123 407z" />
<glyph unicode="&#xc8;" horiz-adv-x="1146" d="M45 0l201 1434h870l-20 -154h-668l-66 -467h568l-21 -156h-569l-70 -503h676q-14 -90 -39.5 -122t-89.5 -32h-772zM446 1837h221l135 -309h-158z" />
<glyph unicode="&#xc9;" horiz-adv-x="1146" d="M45 0l201 1434h870l-20 -154h-668l-66 -467h568l-21 -156h-569l-70 -503h676q-14 -90 -39.5 -122t-89.5 -32h-772zM538 1528l240 309h236l-293 -309h-183z" />
<glyph unicode="&#xca;" horiz-adv-x="1146" d="M45 0l201 1434h870l-20 -154h-668l-66 -467h568l-21 -156h-569l-70 -503h676q-14 -90 -39.5 -122t-89.5 -32h-772zM356 1528l254 285h205l174 -285h-154l-133 170l-184 -170h-162z" />
<glyph unicode="&#xcb;" horiz-adv-x="1146" d="M45 0l201 1434h870l-20 -154h-668l-66 -467h568l-21 -156h-569l-70 -503h676q-14 -90 -39.5 -122t-89.5 -32h-772zM366 1631q0 16 2 24l2 21q14 106 121 106h18q94 0 94 -82q0 -16 -2 -24l-2 -21q-16 -106 -120 -106h-19q-94 0 -94 82zM782 1631q0 16 2 24l2 21 q14 106 121 106h18q94 0 94 -86l-2 -20l-4 -21q-12 -106 -119 -106h-20q-92 0 -92 82z" />
<glyph unicode="&#xcc;" horiz-adv-x="716" d="M139 0l201 1434h205l-201 -1434h-205zM227 1822h221l135 -309h-158z" />
<glyph unicode="&#xcd;" horiz-adv-x="716" d="M139 0l201 1434h205l-201 -1434h-205zM319 1513l240 309h236l-293 -309h-183z" />
<glyph unicode="&#xce;" horiz-adv-x="716" d="M137 1513l254 285h205l174 -285h-154l-133 170l-184 -170h-162zM139 0l201 1434h205l-201 -1434h-205z" />
<glyph unicode="&#xcf;" horiz-adv-x="716" d="M139 0l201 1434h205l-201 -1434h-205zM147 1616q0 16 2 24l2 21q14 106 121 106h18q94 0 94 -82q0 -16 -2 -24l-2 -21q-16 -106 -120 -106h-19q-94 0 -94 82zM563 1616q0 16 2 24l2 21q14 106 121 106h18q94 0 94 -86l-2 -20l-4 -21q-12 -106 -119 -106h-20q-92 0 -92 82 z" />
<glyph unicode="&#xd0;" horiz-adv-x="1376" d="M-23 655l21 146h160l88 633h438q279 0 435.5 -155t156.5 -427q0 -256 -94.5 -448.5t-268.5 -298t-403 -105.5h-465l92 655h-160zM270 154h228q178 0 307 82.5t196.5 238.5t67.5 371q0 213 -105.5 323.5t-308.5 110.5h-227l-68 -479h345l-21 -146h-344z" />
<glyph unicode="&#xd1;" horiz-adv-x="1419" d="M45 0l201 1434h174q27 0 42 -8.5t30 -32.5l514 -869l124 910h203l-162 -1153q-23 -145 -24 -226q-2 -27 -18.5 -41t-41.5 -14h-157l14 98q2 14 2 45q0 98 -49 183l-487 825l-162 -1151h-203zM503 1607q0 76 59.5 116t141.5 40q45 0 77 -12.5t68 -34.5q33 -18 52.5 -26.5 t46.5 -8.5q47 0 70.5 22.5t33.5 65.5q92 0 92 -74q0 -66 -57 -112.5t-139 -46.5q-47 0 -80 12t-72 35q-35 18 -56.5 27.5t-49.5 9.5q-80 0 -103 -88q-84 -1 -84 75z" />
<glyph unicode="&#xd2;" horiz-adv-x="1406" d="M61 573q0 266 87.5 466t247 307.5t374.5 107.5q256 0 399.5 -150.5t143.5 -422.5q0 -281 -84 -483.5t-244 -310t-379 -107.5q-256 0 -400.5 157.5t-144.5 435.5zM268 573q0 -207 90.5 -319.5t253.5 -112.5q236 0 364 191.5t128 541.5q0 201 -88 309.5t-254 108.5 q-154 0 -264.5 -86t-170 -247.5t-59.5 -385.5zM567 1822h221l135 -309h-158z" />
<glyph unicode="&#xd3;" horiz-adv-x="1406" d="M61 573q0 266 87.5 466t247 307.5t374.5 107.5q256 0 399.5 -150.5t143.5 -422.5q0 -281 -84 -483.5t-244 -310t-379 -107.5q-256 0 -400.5 157.5t-144.5 435.5zM268 573q0 -207 90.5 -319.5t253.5 -112.5q236 0 364 191.5t128 541.5q0 201 -88 309.5t-254 108.5 q-154 0 -264.5 -86t-170 -247.5t-59.5 -385.5zM659 1513l240 309h236l-293 -309h-183z" />
<glyph unicode="&#xd4;" horiz-adv-x="1406" d="M61 573q0 266 87.5 466t247 307.5t374.5 107.5q256 0 399.5 -150.5t143.5 -422.5q0 -281 -84 -483.5t-244 -310t-379 -107.5q-256 0 -400.5 157.5t-144.5 435.5zM268 573q0 -207 90.5 -319.5t253.5 -112.5q236 0 364 191.5t128 541.5q0 201 -88 309.5t-254 108.5 q-154 0 -264.5 -86t-170 -247.5t-59.5 -385.5zM477 1513l254 285h205l174 -285h-154l-133 170l-184 -170h-162z" />
<glyph unicode="&#xd5;" horiz-adv-x="1406" d="M61 573q0 266 87.5 466t247 307.5t374.5 107.5q256 0 399.5 -150.5t143.5 -422.5q0 -281 -84 -483.5t-244 -310t-379 -107.5q-256 0 -400.5 157.5t-144.5 435.5zM268 573q0 -207 90.5 -319.5t253.5 -112.5q236 0 364 191.5t128 541.5q0 201 -88 309.5t-254 108.5 q-154 0 -264.5 -86t-170 -247.5t-59.5 -385.5zM493 1607q0 76 59.5 116t141.5 40q45 0 77 -12.5t68 -34.5q33 -18 52.5 -26.5t46.5 -8.5q47 0 70.5 22.5t33.5 65.5q92 0 92 -74q0 -66 -57 -112.5t-139 -46.5q-47 0 -80 12t-72 35q-35 18 -56.5 27.5t-49.5 9.5 q-80 0 -103 -88q-84 -1 -84 75z" />
<glyph unicode="&#xd6;" horiz-adv-x="1406" d="M61 573q0 266 87.5 466t247 307.5t374.5 107.5q256 0 399.5 -150.5t143.5 -422.5q0 -281 -84 -483.5t-244 -310t-379 -107.5q-256 0 -400.5 157.5t-144.5 435.5zM268 573q0 -207 90.5 -319.5t253.5 -112.5q236 0 364 191.5t128 541.5q0 201 -88 309.5t-254 108.5 q-154 0 -264.5 -86t-170 -247.5t-59.5 -385.5zM487 1616q0 16 2 24l2 21q14 106 121 106h18q94 0 94 -82q0 -16 -2 -24l-2 -21q-16 -106 -120 -106h-19q-94 0 -94 82zM903 1616q0 16 2 24l2 21q14 106 121 106h18q94 0 94 -86l-2 -20l-4 -21q-12 -106 -119 -106h-20 q-92 0 -92 82z" />
<glyph unicode="&#xd7;" d="M135 350l359 314l-271 313l103 92l270 -309l358 311l90 -94l-358 -313l270 -314l-102 -92l-270 309l-359 -311z" />
<glyph unicode="&#xd8;" horiz-adv-x="1392" d="M-8 0l168 199q-98 150 -99 374q0 266 87.5 466t247 307.5t374.5 107.5q221 0 358 -113l80 95h148l-150 -176q106 -147 107 -379q0 -281 -84 -483.5t-244 -310t-379 -107.5q-229 0 -373 131l-94 -111h-147zM268 573q0 -121 31 -211l707 834q-86 96 -244 96 q-154 0 -264.5 -86t-170 -247.5t-59.5 -385.5zM356 256q92 -115 256 -115q236 0 364 191.5t128 541.5q0 130 -37 222z" />
<glyph unicode="&#xd9;" horiz-adv-x="1452" d="M115 391q0 51 10 123l129 920h203l-133 -949q-6 -39 -7 -77q0 -135 78 -202t236 -67q182 0 280.5 85t122.5 261l133 949h203l-129 -920q-37 -272 -191.5 -403t-441.5 -131q-493 -1 -493 411zM594 1816h221l135 -309h-158z" />
<glyph unicode="&#xda;" horiz-adv-x="1452" d="M115 391q0 51 10 123l129 920h203l-133 -949q-6 -39 -7 -77q0 -135 78 -202t236 -67q182 0 280.5 85t122.5 261l133 949h203l-129 -920q-37 -272 -191.5 -403t-441.5 -131q-493 -1 -493 411zM685 1507l240 309h236l-293 -309h-183z" />
<glyph unicode="&#xdb;" horiz-adv-x="1452" d="M115 391q0 51 10 123l129 920h203l-133 -949q-6 -39 -7 -77q0 -135 78 -202t236 -67q182 0 280.5 85t122.5 261l133 949h203l-129 -920q-37 -272 -191.5 -403t-441.5 -131q-493 -1 -493 411zM504 1507l254 285h205l174 -285h-154l-133 170l-184 -170h-162z" />
<glyph unicode="&#xdc;" horiz-adv-x="1452" d="M115 391q0 51 10 123l129 920h203l-133 -949q-6 -39 -7 -77q0 -135 78 -202t236 -67q182 0 280.5 85t122.5 261l133 949h203l-129 -920q-37 -272 -191.5 -403t-441.5 -131q-493 -1 -493 411zM514 1610q0 16 2 24l2 21q14 106 121 106h18q94 0 94 -82q0 -16 -2 -24l-2 -21 q-16 -106 -120 -106h-19q-94 0 -94 82zM930 1610q0 16 2 24l2 21q14 106 121 106h18q94 0 94 -86l-2 -20l-4 -21q-12 -106 -119 -106h-20q-92 0 -92 82z" />
<glyph unicode="&#xdd;" horiz-adv-x="1208" d="M119 1434h213l266 -650l449 650h210l-585 -832l-84 -602h-201l84 602zM564 1513l240 309h236l-293 -309h-183z" />
<glyph unicode="&#xde;" horiz-adv-x="1312" d="M84 0l201 1434h200l-28 -207h225q250 0 378 -109.5t128 -302.5q0 -260 -158 -405.5t-442 -145.5h-266l-37 -264h-201zM344 422h238q196 0 298.5 101.5t102.5 291.5q0 252 -311 252h-238z" />
<glyph unicode="&#xdf;" horiz-adv-x="1277" d="M41 0l147 1055q31 213 171.5 327.5t357.5 114.5q127 0 223 -48t149.5 -133t53.5 -194q0 -137 -67.5 -239.5t-186.5 -147.5q98 -28 153.5 -107t55.5 -192q0 -211 -129 -338t-348 -127q-123 0 -213.5 36t-90.5 106q0 35 15.5 56t42.5 28q49 -43 105.5 -63.5t133.5 -20.5 q145 0 226.5 86t81.5 231q0 231 -244 232q-16 0 -57 -5l-50 -2q-27 0 -45 40t-18 75q0 29 18 29h140q131 0 215 85t84 230q0 115 -70 180.5t-195 65.5q-143 0 -226 -78t-105 -227l-148 -1055h-180z" />
<glyph unicode="&#xe0;" horiz-adv-x="1148" d="M16 272q0 199 195 297.5t569 114.5l11 80q4 41 4 57q0 88 -52.5 132t-160.5 44q-98 0 -175 -37.5t-165 -109.5q-12 -10 -29 -10q-27 0 -54.5 28.5t-45.5 75.5q94 90 225 146.5t280 56.5q176 0 273.5 -84t97.5 -232q0 -45 -4 -67l-61 -436q-12 -86 -13 -140 q0 -49 10.5 -82.5t30.5 -64.5q-33 -23 -74.5 -38t-76.5 -15q-94 0 -88 170q-150 -178 -383 -178q-139 0 -226.5 76.5t-87.5 215.5zM217 285q0 -164 176 -164q92 0 178 57.5t160 159.5l31 219q-291 -10 -418 -76.5t-127 -195.5zM405 1597h221l135 -309h-158z" />
<glyph unicode="&#xe1;" horiz-adv-x="1148" d="M16 272q0 199 195 297.5t569 114.5l11 80q4 41 4 57q0 88 -52.5 132t-160.5 44q-98 0 -175 -37.5t-165 -109.5q-12 -10 -29 -10q-27 0 -54.5 28.5t-45.5 75.5q94 90 225 146.5t280 56.5q176 0 273.5 -84t97.5 -232q0 -45 -4 -67l-61 -436q-12 -86 -13 -140 q0 -49 10.5 -82.5t30.5 -64.5q-33 -23 -74.5 -38t-76.5 -15q-94 0 -88 170q-150 -178 -383 -178q-139 0 -226.5 76.5t-87.5 215.5zM217 285q0 -164 176 -164q92 0 178 57.5t160 159.5l31 219q-291 -10 -418 -76.5t-127 -195.5zM497 1288l240 309h236l-293 -309h-183z" />
<glyph unicode="&#xe2;" horiz-adv-x="1148" d="M16 272q0 199 195 297.5t569 114.5l11 80q4 41 4 57q0 88 -52.5 132t-160.5 44q-98 0 -175 -37.5t-165 -109.5q-12 -10 -29 -10q-27 0 -54.5 28.5t-45.5 75.5q94 90 225 146.5t280 56.5q176 0 273.5 -84t97.5 -232q0 -45 -4 -67l-61 -436q-12 -86 -13 -140 q0 -49 10.5 -82.5t30.5 -64.5q-33 -23 -74.5 -38t-76.5 -15q-94 0 -88 170q-150 -178 -383 -178q-139 0 -226.5 76.5t-87.5 215.5zM217 285q0 -164 176 -164q92 0 178 57.5t160 159.5l31 219q-291 -10 -418 -76.5t-127 -195.5zM315 1288l254 285h205l174 -285h-154l-133 170 l-184 -170h-162z" />
<glyph unicode="&#xe3;" horiz-adv-x="1148" d="M16 272q0 199 195 297.5t569 114.5l11 80q4 41 4 57q0 88 -52.5 132t-160.5 44q-98 0 -175 -37.5t-165 -109.5q-12 -10 -29 -10q-27 0 -54.5 28.5t-45.5 75.5q94 90 225 146.5t280 56.5q176 0 273.5 -84t97.5 -232q0 -45 -4 -67l-61 -436q-12 -86 -13 -140 q0 -49 10.5 -82.5t30.5 -64.5q-33 -23 -74.5 -38t-76.5 -15q-94 0 -88 170q-150 -178 -383 -178q-139 0 -226.5 76.5t-87.5 215.5zM217 285q0 -164 176 -164q92 0 178 57.5t160 159.5l31 219q-291 -10 -418 -76.5t-127 -195.5zM331 1382q0 76 59.5 116t141.5 40 q45 0 77 -12.5t68 -34.5q33 -18 52.5 -26.5t46.5 -8.5q47 0 70.5 22.5t33.5 65.5q92 0 92 -74q0 -66 -57 -112.5t-139 -46.5q-47 0 -80 12t-72 35q-35 18 -56.5 27.5t-49.5 9.5q-80 0 -103 -88q-84 -1 -84 75z" />
<glyph unicode="&#xe4;" horiz-adv-x="1148" d="M16 272q0 199 195 297.5t569 114.5l11 80q4 41 4 57q0 88 -52.5 132t-160.5 44q-98 0 -175 -37.5t-165 -109.5q-12 -10 -29 -10q-27 0 -54.5 28.5t-45.5 75.5q94 90 225 146.5t280 56.5q176 0 273.5 -84t97.5 -232q0 -45 -4 -67l-61 -436q-12 -86 -13 -140 q0 -49 10.5 -82.5t30.5 -64.5q-33 -23 -74.5 -38t-76.5 -15q-94 0 -88 170q-150 -178 -383 -178q-139 0 -226.5 76.5t-87.5 215.5zM217 285q0 -164 176 -164q92 0 178 57.5t160 159.5l31 219q-291 -10 -418 -76.5t-127 -195.5zM325 1391q0 16 2 24l2 21q14 106 121 106h18 q94 0 94 -82q0 -16 -2 -24l-2 -21q-16 -106 -120 -106h-19q-94 0 -94 82zM741 1391q0 16 2 24l2 21q14 106 121 106h18q94 0 94 -86l-2 -20l-4 -21q-12 -106 -119 -106h-20q-92 0 -92 82z" />
<glyph unicode="&#xe5;" horiz-adv-x="1148" d="M16 272q0 199 195 297.5t569 114.5l11 80q4 41 4 57q0 88 -52.5 132t-160.5 44q-98 0 -175 -37.5t-165 -109.5q-12 -10 -29 -10q-27 0 -54.5 28.5t-45.5 75.5q94 90 225 146.5t280 56.5q176 0 273.5 -84t97.5 -232q0 -45 -4 -67l-61 -436q-12 -86 -13 -140 q0 -49 10.5 -82.5t30.5 -64.5q-33 -23 -74.5 -38t-76.5 -15q-94 0 -88 170q-150 -178 -383 -178q-139 0 -226.5 76.5t-87.5 215.5zM217 285q0 -164 176 -164q92 0 178 57.5t160 159.5l31 219q-291 -10 -418 -76.5t-127 -195.5zM421 1497q0 119 80 195.5t195 76.5 q90 0 150.5 -58t60.5 -148q0 -121 -79 -196t-194 -75q-94 0 -153.5 57.5t-59.5 147.5zM548 1516q0 -45 28 -72t73 -27q55 0 92 38t37 95q0 43 -26.5 69t-69.5 26q-59 0 -96.5 -38t-37.5 -91z" />
<glyph unicode="&#xe6;" horiz-adv-x="1861" d="M18 279q0 156 97.5 240.5t262.5 115.5t402 31q16 123 17 151q0 180 -215 180q-100 0 -177 -34.5t-165 -102.5q-14 -10 -33 -10q-49 0 -92 113q217 184 489 184q123 0 213 -42t135 -120q158 162 398 162q205 0 306 -104.5t101 -317.5q0 -96 -26 -190h-773q-4 -70 -4 -107 q0 -154 69 -230.5t191 -76.5q102 0 175 44t143 130q23 25 45 24q47 0 119 -57q-66 -133 -190 -210t-308 -77q-125 0 -222 46.5t-153 136.5q-88 -90 -198.5 -136.5t-264.5 -46.5q-152 0 -247 85t-95 219zM219 289q0 -74 48 -123t130 -49q125 0 213 51t154 149q-8 47 -8 109 q0 35 4 104q-264 -4 -402.5 -55t-138.5 -186zM981 666h586q6 47 6 86q0 121 -61.5 189.5t-186.5 68.5q-135 0 -221 -94.5t-123 -249.5z" />
<glyph unicode="&#xe7;" horiz-adv-x="1140" d="M29 463q0 207 72.5 361.5t206.5 238.5t315 84q197 0 310.5 -98.5t108.5 -268.5q-80 -37 -129 -37q-47 0 -53 68q-4 94 -69.5 145.5t-180.5 51.5q-178 0 -280.5 -142.5t-102.5 -390.5q0 -162 78 -256t211 -94q115 0 188.5 53t135.5 182q53 0 82.5 -27.5t29.5 -76.5 q0 -76 -52 -137.5t-144 -98t-209 -40.5l-90 -91h18q80 0 129 -37.5t49 -103.5q0 -106 -84 -164.5t-209 -58.5q-92 0 -139 21.5t-47 60.5q0 12 12 45q84 -23 170 -23q63 0 99.5 27t36.5 70q0 27 -20.5 44t-59.5 17q-33 0 -76 -12l-39 71l119 140q-182 29 -284.5 154.5 t-102.5 322.5z" />
<glyph unicode="&#xe8;" horiz-adv-x="1161" d="M47 453q0 215 70.5 371.5t203 239.5t314.5 83q209 0 314.5 -104.5t105.5 -307.5q0 -82 -17 -200h-790q-2 -25 -2 -76q0 -160 72.5 -247t201.5 -87q111 0 183.5 37t130.5 125q18 27 45 26q45 0 118 -57q-68 -137 -191.5 -206.5t-297.5 -69.5q-211 0 -336 128t-125 345z M264 666h600q6 43 6 94q0 123 -62.5 186.5t-182.5 63.5q-142 0 -234 -89.5t-127 -254.5zM432 1597h221l135 -309h-158z" />
<glyph unicode="&#xe9;" horiz-adv-x="1161" d="M47 453q0 215 70.5 371.5t203 239.5t314.5 83q209 0 314.5 -104.5t105.5 -307.5q0 -82 -17 -200h-790q-2 -25 -2 -76q0 -160 72.5 -247t201.5 -87q111 0 183.5 37t130.5 125q18 27 45 26q45 0 118 -57q-68 -137 -191.5 -206.5t-297.5 -69.5q-211 0 -336 128t-125 345z M264 666h600q6 43 6 94q0 123 -62.5 186.5t-182.5 63.5q-142 0 -234 -89.5t-127 -254.5zM521 1288l240 309h236l-293 -309h-183z" />
<glyph unicode="&#xea;" horiz-adv-x="1161" d="M47 453q0 215 70.5 371.5t203 239.5t314.5 83q209 0 314.5 -104.5t105.5 -307.5q0 -82 -17 -200h-790q-2 -25 -2 -76q0 -160 72.5 -247t201.5 -87q111 0 183.5 37t130.5 125q18 27 45 26q45 0 118 -57q-68 -137 -191.5 -206.5t-297.5 -69.5q-211 0 -336 128t-125 345z M264 666h600q6 43 6 94q0 123 -62.5 186.5t-182.5 63.5q-142 0 -234 -89.5t-127 -254.5zM340 1288l254 285h205l174 -285h-154l-133 170l-184 -170h-162z" />
<glyph unicode="&#xeb;" horiz-adv-x="1161" d="M47 453q0 215 70.5 371.5t203 239.5t314.5 83q209 0 314.5 -104.5t105.5 -307.5q0 -82 -17 -200h-790q-2 -25 -2 -76q0 -160 72.5 -247t201.5 -87q111 0 183.5 37t130.5 125q18 27 45 26q45 0 118 -57q-68 -137 -191.5 -206.5t-297.5 -69.5q-211 0 -336 128t-125 345z M264 666h600q6 43 6 94q0 123 -62.5 186.5t-182.5 63.5q-142 0 -234 -89.5t-127 -254.5zM350 1391q0 16 2 24l2 21q14 106 121 106h18q94 0 94 -82q0 -16 -2 -24l-2 -21q-16 -106 -120 -106h-19q-94 0 -94 82zM766 1391q0 16 2 24l2 21q14 106 121 106h18q94 0 94 -86 l-2 -20l-4 -21q-12 -106 -119 -106h-20q-92 0 -92 82z" />
<glyph unicode="&#xec;" horiz-adv-x="589" d="M82 0l158 1126h192l-158 -1126h-192zM133 1597h221l135 -309h-158z" />
<glyph unicode="&#xed;" horiz-adv-x="589" d="M82 0l158 1126h192l-158 -1126h-192zM224 1288l240 309h236l-293 -309h-183z" />
<glyph unicode="&#xee;" horiz-adv-x="589" d="M43 1288l254 285h205l174 -285h-154l-133 170l-184 -170h-162zM82 0l158 1126h192l-158 -1126h-192z" />
<glyph unicode="&#xef;" horiz-adv-x="589" d="M53 1391q0 16 2 24l2 21q14 106 121 106h18q94 0 94 -82q0 -16 -2 -24l-2 -21q-16 -106 -120 -106h-19q-94 0 -94 82zM82 0l158 1126h192l-158 -1126h-192zM469 1391q0 16 2 24l2 21q14 106 121 106h18q94 0 94 -86l-2 -20l-4 -21q-12 -106 -119 -106h-20q-92 0 -92 82z " />
<glyph unicode="&#xf0;" horiz-adv-x="1161" d="M33 438q0 201 65.5 357.5t195.5 247t320 90.5q106 0 183 -41q-51 123 -127 221l-201 -115l-63 111l174 100q-51 51 -131 107l151 116q76 -53 150 -127l213 123l61 -112l-188 -109q112 -141 167.5 -309t55.5 -353q0 -770 -563 -770q-152 0 -256.5 61.5t-155.5 166 t-51 235.5zM227 434q0 -152 69 -236.5t198 -84.5q188 0 273 155.5t85 407.5q0 150 -60.5 234.5t-187.5 84.5q-195 0 -286 -154.5t-91 -406.5z" />
<glyph unicode="&#xf1;" horiz-adv-x="1249" d="M47 0l105 748q29 211 28 294q0 31 -4 56q104 37 158 37q53 0 53 -74q0 -12 -4 -45l-2 -21q111 82 202 117t189 35q305 0 305 -287q0 -29 -8 -98l-70 -494q-18 -135 -18 -180q0 -41 8 -68q-76 -31 -158 -30q-25 0 -37 18.5t-12 63.5q0 33 15 137l77 549q6 43 7 78 q0 86 -41 125.5t-129 39.5q-156 0 -353 -155l-116 -846h-195zM389 1382q0 76 59.5 116t141.5 40q45 0 77 -12.5t68 -34.5q33 -18 52.5 -26.5t46.5 -8.5q47 0 70.5 22.5t33.5 65.5q92 0 92 -74q0 -66 -57 -112.5t-139 -46.5q-47 0 -80 12t-72 35q-35 18 -56.5 27.5t-49.5 9.5 q-80 0 -103 -88q-84 -1 -84 75z" />
<glyph unicode="&#xf2;" horiz-adv-x="1136" d="M25 420q0 223 69.5 387t200.5 252t309 88q211 0 320.5 -109.5t109.5 -322.5q0 -225 -70.5 -391t-201.5 -255t-307 -89q-211 0 -320.5 111.5t-109.5 328.5zM221 416q0 -150 60.5 -222.5t185.5 -72.5q174 0 271.5 156.5t97.5 437.5q0 147 -60.5 219t-183.5 72 q-174 0 -272.5 -156t-98.5 -434zM407 1597h221l135 -309h-158z" />
<glyph unicode="&#xf3;" horiz-adv-x="1136" d="M25 420q0 223 69.5 387t200.5 252t309 88q211 0 320.5 -109.5t109.5 -322.5q0 -225 -70.5 -391t-201.5 -255t-307 -89q-211 0 -320.5 111.5t-109.5 328.5zM221 416q0 -150 60.5 -222.5t185.5 -72.5q174 0 271.5 156.5t97.5 437.5q0 147 -60.5 219t-183.5 72 q-174 0 -272.5 -156t-98.5 -434zM497 1288l240 309h236l-293 -309h-183z" />
<glyph unicode="&#xf4;" horiz-adv-x="1136" d="M25 420q0 223 69.5 387t200.5 252t309 88q211 0 320.5 -109.5t109.5 -322.5q0 -225 -70.5 -391t-201.5 -255t-307 -89q-211 0 -320.5 111.5t-109.5 328.5zM221 416q0 -150 60.5 -222.5t185.5 -72.5q174 0 271.5 156.5t97.5 437.5q0 147 -60.5 219t-183.5 72 q-174 0 -272.5 -156t-98.5 -434zM315 1288l254 285h205l174 -285h-154l-133 170l-184 -170h-162z" />
<glyph unicode="&#xf5;" horiz-adv-x="1136" d="M25 420q0 223 69.5 387t200.5 252t309 88q211 0 320.5 -109.5t109.5 -322.5q0 -225 -70.5 -391t-201.5 -255t-307 -89q-211 0 -320.5 111.5t-109.5 328.5zM221 416q0 -150 60.5 -222.5t185.5 -72.5q174 0 271.5 156.5t97.5 437.5q0 147 -60.5 219t-183.5 72 q-174 0 -272.5 -156t-98.5 -434zM331 1382q0 76 59.5 116t141.5 40q45 0 77 -12.5t68 -34.5q33 -18 52.5 -26.5t46.5 -8.5q47 0 70.5 22.5t33.5 65.5q92 0 92 -74q0 -66 -57 -112.5t-139 -46.5q-47 0 -80 12t-72 35q-35 18 -56.5 27.5t-49.5 9.5q-80 0 -103 -88 q-84 -1 -84 75z" />
<glyph unicode="&#xf6;" horiz-adv-x="1136" d="M25 420q0 223 69.5 387t200.5 252t309 88q211 0 320.5 -109.5t109.5 -322.5q0 -225 -70.5 -391t-201.5 -255t-307 -89q-211 0 -320.5 111.5t-109.5 328.5zM221 416q0 -150 60.5 -222.5t185.5 -72.5q174 0 271.5 156.5t97.5 437.5q0 147 -60.5 219t-183.5 72 q-174 0 -272.5 -156t-98.5 -434zM325 1391q0 16 2 24l2 21q14 106 121 106h18q94 0 94 -82q0 -16 -2 -24l-2 -21q-16 -106 -120 -106h-19q-94 0 -94 82zM741 1391q0 16 2 24l2 21q14 106 121 106h18q94 0 94 -86l-2 -20l-4 -21q-12 -106 -119 -106h-20q-92 0 -92 82z" />
<glyph unicode="&#xf7;" d="M111 596l18 135h942l-18 -135h-942zM395 250q0 53 41 92t92 39q45 0 74 -27.5t29 -70.5q0 -53 -41 -93t-94 -40q-45 0 -73 28.5t-28 71.5zM508 1053q0 53 40 93t93 40q45 0 73.5 -29t28.5 -72q0 -51 -40.5 -90t-94.5 -39q-43 0 -71.5 28t-28.5 69z" />
<glyph unicode="&#xf8;" horiz-adv-x="1136" d="M-55 0l139 156q-59 106 -59 264q0 223 69.5 387t200.5 252t309 88q188 0 293 -86l59 65h146l-131 -147q63 -104 63 -264q0 -225 -70.5 -391t-201.5 -255t-307 -89q-193 0 -301 92l-64 -72h-145zM221 416q0 -60 8 -99l549 613q-57 76 -186 76q-174 0 -272.5 -156 t-98.5 -434zM274 205q57 -84 193 -84q174 0 271.5 156.5t97.5 437.5q-1 53 -11 104z" />
<glyph unicode="&#xf9;" horiz-adv-x="1261" d="M98 287q0 39 6 82l107 757h195l-107 -753q-6 -39 -6 -72q0 -94 46 -139t142 -45q190 0 334 186l117 823h194l-122 -880q-12 -76 -13 -129q0 -53 13 -97q-68 -31 -134 -30q-43 0 -61 22.5t-18 81.5q0 25 2 39q-66 -74 -160 -113.5t-203 -39.5q-160 0 -246 79.5t-86 227.5z M467 1597h221l135 -309h-158z" />
<glyph unicode="&#xfa;" horiz-adv-x="1261" d="M98 287q0 39 6 82l107 757h195l-107 -753q-6 -39 -6 -72q0 -94 46 -139t142 -45q190 0 334 186l117 823h194l-122 -880q-12 -76 -13 -129q0 -53 13 -97q-68 -31 -134 -30q-43 0 -61 22.5t-18 81.5q0 25 2 39q-66 -74 -160 -113.5t-203 -39.5q-160 0 -246 79.5t-86 227.5z M560 1288l240 309h236l-293 -309h-183z" />
<glyph unicode="&#xfb;" horiz-adv-x="1261" d="M98 287q0 39 6 82l107 757h195l-107 -753q-6 -39 -6 -72q0 -94 46 -139t142 -45q190 0 334 186l117 823h194l-122 -880q-12 -76 -13 -129q0 -53 13 -97q-68 -31 -134 -30q-43 0 -61 22.5t-18 81.5q0 25 2 39q-66 -74 -160 -113.5t-203 -39.5q-160 0 -246 79.5t-86 227.5z M379 1288l254 285h205l174 -285h-154l-133 170l-184 -170h-162z" />
<glyph unicode="&#xfc;" horiz-adv-x="1261" d="M98 287q0 39 6 82l107 757h195l-107 -753q-6 -39 -6 -72q0 -94 46 -139t142 -45q190 0 334 186l117 823h194l-122 -880q-12 -76 -13 -129q0 -53 13 -97q-68 -31 -134 -30q-43 0 -61 22.5t-18 81.5q0 25 2 39q-66 -74 -160 -113.5t-203 -39.5q-160 0 -246 79.5t-86 227.5z M389 1391q0 16 2 24l2 21q14 106 121 106h18q94 0 94 -82q0 -16 -2 -24l-2 -21q-16 -106 -120 -106h-19q-94 0 -94 82zM805 1391q0 16 2 24l2 21q14 106 121 106h18q94 0 94 -86l-2 -20l-4 -21q-12 -106 -119 -106h-20q-92 0 -92 82z" />
<glyph unicode="&#xfd;" horiz-adv-x="1028" d="M-152 -303q0 55 52 84q20 -16 57 -25.5t76 -9.5q82 0 146.5 64.5t125.5 207.5l-246 1108h199l178 -858l414 858h207l-606 -1212q-90 -176 -186.5 -251t-235.5 -75q-84 0 -132.5 29t-48.5 80zM444 1288l240 309h236l-293 -309h-183z" />
<glyph unicode="&#xfe;" horiz-adv-x="1247" d="M-12 -457l291 2069h196l-82 -584q141 119 328 119q188 0 296.5 -101.5t108.5 -324.5q0 -68 -12 -146q-27 -193 -111.5 -327.5t-211.5 -203.5t-279 -69q-137 0 -260 52l-68 -484h-196zM272 174q109 -57 244 -57q156 0 261.5 113.5t135.5 344.5q13 80 13 146 q0 150 -61.5 217.5t-178.5 67.5q-168 0 -315 -140z" />
<glyph unicode="&#xff;" horiz-adv-x="1028" d="M-152 -303q0 55 52 84q20 -16 57 -25.5t76 -9.5q82 0 146.5 64.5t125.5 207.5l-246 1108h199l178 -858l414 858h207l-606 -1212q-90 -176 -186.5 -251t-235.5 -75q-84 0 -132.5 29t-48.5 80zM272 1391q0 16 2 24l2 21q14 106 121 106h18q94 0 94 -82q0 -16 -2 -24l-2 -21 q-16 -106 -120 -106h-19q-94 0 -94 82zM688 1391q0 16 2 24l2 21q14 106 121 106h18q94 0 94 -86l-2 -20l-4 -21q-12 -106 -119 -106h-20q-92 0 -92 82z" />
<glyph unicode="&#x152;" horiz-adv-x="2119" d="M61 573q0 266 87.5 466t247 307.5t374.5 107.5q141 0 248.5 -46t177.5 -136l23 162h870l-21 -154h-667l-66 -467h568l-21 -156h-569l-70 -503h676q-14 -90 -40 -122t-89 -32h-772l18 125q-176 -145 -430 -145q-256 0 -400.5 157.5t-144.5 435.5zM268 573 q0 -207 90.5 -319.5t253.5 -112.5q236 0 364 191.5t128 541.5q0 201 -88 309.5t-254 108.5q-154 0 -264.5 -86t-170 -247.5t-59.5 -385.5z" />
<glyph unicode="&#x153;" horiz-adv-x="1931" d="M25 420q0 223 69.5 387t200.5 252t309 88q272 0 375 -180q156 180 428 180q209 0 314.5 -104.5t105.5 -307.5q0 -94 -19 -200h-786q-2 -5 -2 -13q-2 -20 -2 -63q0 -160 71.5 -247t202.5 -87q109 0 181.5 37t132.5 125q18 27 45 26q43 0 116 -57q-68 -137 -190.5 -206.5 t-296.5 -69.5q-135 0 -236.5 53t-158.5 151q-76 -100 -185.5 -152t-244.5 -52q-211 0 -320.5 111.5t-109.5 328.5zM221 416q0 -150 60.5 -222.5t185.5 -72.5q141 0 232.5 103.5t121.5 293.5q4 59 13 115q2 27 2 82q0 147 -60.5 219t-183.5 72q-174 0 -272.5 -156t-98.5 -434 zM1036 666h598q6 43 6 94q0 123 -61 186.5t-182 63.5q-142 0 -234 -89.5t-127 -254.5z" />
<glyph unicode="&#x178;" horiz-adv-x="1208" d="M119 1434h213l266 -650l449 650h210l-585 -832l-84 -602h-201l84 602zM393 1616q0 16 2 24l2 21q14 106 121 106h18q94 0 94 -82q0 -16 -2 -24l-2 -21q-16 -106 -120 -106h-19q-94 0 -94 82zM809 1616q0 16 2 24l2 21q14 106 121 106h18q94 0 94 -86l-2 -20l-4 -21 q-12 -106 -119 -106h-20q-92 0 -92 82z" />
<glyph unicode="&#x2c6;" horiz-adv-x="497" d="M-4 1288l254 285h205l174 -285h-154l-133 170l-184 -170h-162z" />
<glyph unicode="&#x2dc;" horiz-adv-x="499" d="M12 1382q0 76 59.5 116t141.5 40q45 0 77 -12.5t68 -34.5q33 -18 52.5 -26.5t46.5 -8.5q47 0 70.5 22.5t33.5 65.5q92 0 92 -74q0 -66 -57 -112.5t-139 -46.5q-47 0 -80 12t-72 35q-35 18 -56.5 27.5t-49.5 9.5q-80 0 -103 -88q-84 -1 -84 75z" />
<glyph unicode="&#x2000;" horiz-adv-x="997" />
<glyph unicode="&#x2001;" horiz-adv-x="1994" />
<glyph unicode="&#x2002;" horiz-adv-x="997" />
<glyph unicode="&#x2003;" horiz-adv-x="1994" />
<glyph unicode="&#x2004;" horiz-adv-x="664" />
<glyph unicode="&#x2005;" horiz-adv-x="498" />
<glyph unicode="&#x2006;" horiz-adv-x="332" />
<glyph unicode="&#x2007;" horiz-adv-x="332" />
<glyph unicode="&#x2008;" horiz-adv-x="249" />
<glyph unicode="&#x2009;" horiz-adv-x="398" />
<glyph unicode="&#x200a;" horiz-adv-x="110" />
<glyph unicode="&#x2010;" horiz-adv-x="983" d="M84 561l18 135h738l-19 -135h-737z" />
<glyph unicode="&#x2011;" horiz-adv-x="983" d="M84 561l18 135h738l-19 -135h-737z" />
<glyph unicode="&#x2012;" horiz-adv-x="983" d="M84 561l18 135h738l-19 -135h-737z" />
<glyph unicode="&#x2013;" horiz-adv-x="1275" d="M63 561l19 135h1071l-18 -135h-1072z" />
<glyph unicode="&#x2014;" horiz-adv-x="2252" d="M63 561l19 135h2048l-19 -135h-2048z" />
<glyph unicode="&#x2018;" horiz-adv-x="497" d="M389 1128q0 14 2 23l4 29q18 150 133 290q39 47 67 68t52 21q39 0 68 -25q-74 -74 -114 -129t-60 -121h14q43 0 66.5 -24.5t23.5 -65.5q0 -14 -2 -23l-2 -26q-8 -51 -42 -82t-83 -31h-31q-45 0 -70.5 25.5t-25.5 70.5z" />
<glyph unicode="&#x2019;" horiz-adv-x="497" d="M165 1096q74 74 114 129t61 121h-15q-43 0 -66.5 24.5t-23.5 65.5q0 14 2 23l2 26q8 51 42 82t83 31h31q45 0 70.5 -25.5t25.5 -70.5q0 -14 -2 -23l-4 -29q-18 -150 -133 -290q-39 -47 -66.5 -68t-52.5 -21q-39 0 -68 25z" />
<glyph unicode="&#x201a;" horiz-adv-x="526" d="M-25 -254q74 74 114 129t61 121h-15q-43 0 -66.5 24.5t-23.5 65.5q0 14 2 23l2 26q8 51 42 82t83 31h31q45 0 70.5 -25.5t25.5 -70.5q0 -14 -2 -23l-4 -29q-18 -150 -133 -290q-39 -47 -66.5 -68t-52.5 -21q-39 0 -68 25z" />
<glyph unicode="&#x201c;" horiz-adv-x="866" d="M401 1128q0 14 2 23l7 29q18 150 133 290q70 88 119 89q38 0 67 -25q-74 -74 -114 -129t-60 -121h12q45 0 68.5 -23.5t23.5 -66.5q0 -14 -2 -23l-4 -26q-8 -51 -40.5 -82t-82.5 -31h-30q-45 0 -72 25.5t-27 70.5zM743 1128q0 14 2 23l5 29q18 147 135 290q37 47 64.5 68 t51.5 21q41 0 70 -25q-76 -76 -116 -130t-60 -120h14q43 0 66.5 -24.5t23.5 -65.5q0 -14 -2 -23l-2 -26q-8 -51 -40.5 -82t-84.5 -31h-30q-45 0 -71 25.5t-26 70.5z" />
<glyph unicode="&#x201d;" horiz-adv-x="866" d="M165 1096q74 74 114 129t61 121h-15q-43 0 -66.5 24.5t-23.5 65.5q0 14 2 23l2 26q8 51 42 82t83 31h31q45 0 70.5 -25.5t25.5 -70.5q0 -14 -2 -23l-4 -29q-18 -150 -133 -290q-39 -47 -66.5 -68t-52.5 -21q-39 0 -68 25zM507 1096q74 74 114 129t61 121h-15 q-43 0 -66.5 24.5t-23.5 65.5q0 14 2 23l2 26q8 51 42 82t83 31h31q45 0 70.5 -25.5t25.5 -70.5q0 -14 -2 -23l-4 -29q-18 -150 -133 -290q-39 -47 -66.5 -68t-52.5 -21q-39 0 -68 25z" />
<glyph unicode="&#x201e;" horiz-adv-x="866" d="M-25 -254q74 74 114 129t61 121h-15q-43 0 -66.5 24.5t-23.5 65.5q0 14 2 23l2 26q8 51 42 82t83 31h31q45 0 70.5 -25.5t25.5 -70.5q0 -14 -2 -23l-4 -29q-18 -150 -133 -290q-39 -47 -66.5 -68t-52.5 -21q-39 0 -68 25zM317 -254q74 74 114 129t61 121h-15 q-43 0 -66.5 24.5t-23.5 65.5q0 14 2 23l2 26q8 51 42 82t83 31h31q45 0 70.5 -25.5t25.5 -70.5q0 -14 -2 -23l-4 -29q-18 -150 -133 -290q-39 -47 -66.5 -68t-52.5 -21q-39 0 -68 25z" />
<glyph unicode="&#x2022;" horiz-adv-x="1146" d="M193 711q0 121 56 219t153.5 154.5t213.5 56.5q145 0 233.5 -86t88.5 -226q0 -119 -57.5 -217t-155.5 -153.5t-213 -55.5q-145 0 -232 85t-87 223z" />
<glyph unicode="&#x2026;" horiz-adv-x="1519" d="M88 86q0 16 2 25l2 22q18 115 131 115h21q100 0 100 -86q0 -18 -2 -29l-2 -22q-16 -115 -131 -115h-21q-100 0 -100 90zM532 86q0 16 2 25l2 22q18 115 131 115h21q100 0 100 -86q0 -18 -2 -29l-2 -22q-16 -115 -131 -115h-21q-100 0 -100 90zM977 86q0 16 2 25l2 22 q18 115 131 115h21q100 0 100 -86q0 -18 -2 -29l-2 -22q-16 -115 -131 -115h-21q-100 0 -100 90z" />
<glyph unicode="&#x202f;" horiz-adv-x="398" />
<glyph unicode="&#x2039;" horiz-adv-x="696" d="M82 590l309 336h180l-290 -336l194 -350h-180z" />
<glyph unicode="&#x203a;" horiz-adv-x="696" d="M125 240l291 335l-195 351h180l213 -351l-309 -335h-180z" />
<glyph unicode="&#x205f;" horiz-adv-x="498" />
<glyph unicode="&#x20ac;" horiz-adv-x="1118" d="M-104 473l18 133h162q4 117 20 205h-153l20 135h166q74 242 246 375t416 133q131 0 243.5 -44t179.5 -122q-20 -45 -52 -77.5t-58 -32.5q-27 0 -55 18q-70 51 -132.5 72.5t-132.5 21.5q-156 0 -267 -89t-173 -255h481l-20 -135h-496q-20 -102 -22 -205h489l-18 -133h-467 q37 -328 364 -328q92 0 168 27t152 88q33 -2 53.5 -26.5t18.5 -59.5q-4 -51 -63.5 -96t-153 -71.5t-195.5 -26.5q-244 0 -387.5 128t-167.5 365h-184z" />
<glyph unicode="&#x2122;" horiz-adv-x="2048" d="M170 1315l16 119h717l-6 -43q-4 -35 -25.5 -55.5t-54.5 -20.5h-207l-104 -744h-154l105 744h-287zM862 571q59 412 162 863h170q57 -160 97 -281t73 -250q68 125 225 373l99 158h172q-29 -506 -80 -863h-154q39 279 68 652q-152 -231 -308 -518h-96q-74 274 -157 518 q-66 -289 -117 -652h-154z" />
<glyph unicode="&#x25fc;" horiz-adv-x="1126" d="M0 0v1126h1126v-1126h-1126z" />
</font>
</defs>
</svg>
